<?xml version="1.0" encoding="utf-8"?>
<!DOCTYPE svg PUBLIC "-//W3C//DTD SVG 1.1//EN" "http://www.w3.org/Graphics/SVG/1.1/DTD/svg11.dtd">
<!-- Generated by graphviz version 2.40.1 (20161225.0304)
 -->
<!-- Title: scallions Pages: 1 -->
<svg height="886pt" viewBox="0.00 0.00 917.5 886.0" width="918pt" xmlns="http://www.w3.org/2000/svg" xmlns:xlink="http://www.w3.org/1999/xlink">
 <g class="graph" id="graph0" transform="scale(1 1) rotate(0) translate(4 832)">
  <title>
   scallions
  </title>
  <polygon fill="#ffffff" points="-4,4 -4,-832 863.5,-832 863.5,4 -4,4" stroke="transparent"/>
  <!-- Codeforces -->
  <g class="node" id="node1">
   <title>
    Codeforces
   </title>
   <g id="a_node1">
    <a target="_parent" xlink:href="https://codeforces.com/problemset" xlink:title="Codeforces(14)">
     <polygon fill="#ff4500" points="525,-828 399,-828 399,-792 525,-792 525,-828" stroke="#d3d3d3"/>
     <text fill="#ffffff" font-family="Microsoft YaHei" font-size="14.00" text-anchor="middle" x="462" y="-806.3">
      Codeforces(14)
     </text>
    </a>
   </g>
  </g>
  <!-- 基础题 -->
  <g class="node" id="node2">
   <title>
    基础题
   </title>
   <polygon fill="#778899" points="212.5,-756 135.5,-756 135.5,-720 212.5,-720 212.5,-756" stroke="#d3d3d3"/>
   <text fill="#ffffff" font-family="Microsoft YaHei" font-size="12.00" text-anchor="middle" x="174" y="-734.9">
    基础题(10)
   </text>
  </g>
  <!-- Codeforces&#45;&gt;基础题 -->
  <g class="edge" id="edge1">
   <title>
    Codeforces-&gt;基础题
   </title>
   <path d="M398.7972,-794.1993C345.7744,-780.9436 271.1425,-762.2856 222.6726,-750.1682" fill="none" stroke="#d3d3d3"/>
   <polygon fill="#d3d3d3" points="223.2943,-746.7159 212.744,-747.686 221.5965,-753.5069 223.2943,-746.7159" stroke="#d3d3d3"/>
  </g>
  <!-- Maths -->
  <g class="node" id="node13">
   <title>
    Maths
   </title>
   <polygon fill="#778899" points="337.5,-756 268.5,-756 268.5,-720 337.5,-720 337.5,-756" stroke="#d3d3d3"/>
   <text fill="#ffffff" font-family="Microsoft YaHei" font-size="12.00" text-anchor="middle" x="303" y="-734.9">
    Maths(1)
   </text>
  </g>
  <!-- Codeforces&#45;&gt;Maths -->
  <g class="edge" id="edge12">
   <title>
    Codeforces-&gt;Maths
   </title>
   <path d="M421.8776,-791.8314C399.076,-781.5061 370.4926,-768.5627 347.0686,-757.9556" fill="none" stroke="#d3d3d3"/>
   <polygon fill="#d3d3d3" points="348.2624,-754.6541 337.709,-753.7173 345.3748,-761.0308 348.2624,-754.6541" stroke="#d3d3d3"/>
  </g>
  <!-- 数论&#45;扩展欧几里得算法 -->
  <g class="node" id="node15">
   <title>
    数论-扩展欧几里得算法
   </title>
   <polygon fill="#778899" points="541,-756 383,-756 383,-720 541,-720 541,-756" stroke="#d3d3d3"/>
   <text fill="#ffffff" font-family="Microsoft YaHei" font-size="12.00" text-anchor="middle" x="462" y="-734.9">
    数论-扩展欧几里得算法(1)
   </text>
  </g>
  <!-- Codeforces&#45;&gt;数论&#45;扩展欧几里得算法 -->
  <g class="edge" id="edge14">
   <title>
    Codeforces-&gt;数论-扩展欧几里得算法
   </title>
   <path d="M462,-791.8314C462,-784.131 462,-774.9743 462,-766.4166" fill="none" stroke="#d3d3d3"/>
   <polygon fill="#d3d3d3" points="465.5001,-766.4132 462,-756.4133 458.5001,-766.4133 465.5001,-766.4132" stroke="#d3d3d3"/>
  </g>
  <!-- 动态规划&#45;树形DP -->
  <g class="node" id="node17">
   <title>
    动态规划-树形DP
   </title>
   <polygon fill="#778899" points="685,-756 559,-756 559,-720 685,-720 685,-756" stroke="#d3d3d3"/>
   <text fill="#ffffff" font-family="Microsoft YaHei" font-size="12.00" text-anchor="middle" x="622" y="-734.9">
    动态规划-树形DP(1)
   </text>
  </g>
  <!-- Codeforces&#45;&gt;动态规划&#45;树形DP -->
  <g class="edge" id="edge16">
   <title>
    Codeforces-&gt;动态规划-树形DP
   </title>
   <path d="M502.3748,-791.8314C523.6787,-782.2446 549.9983,-770.4008 572.5211,-760.2655" fill="none" stroke="#d3d3d3"/>
   <polygon fill="#d3d3d3" points="574.2326,-763.3334 581.9156,-756.038 571.3601,-756.95 574.2326,-763.3334" stroke="#d3d3d3"/>
  </g>
  <!-- 模拟题 -->
  <g class="node" id="node19">
   <title>
    模拟题
   </title>
   <polygon fill="#778899" points="792.5,-756 723.5,-756 723.5,-720 792.5,-720 792.5,-756" stroke="#d3d3d3"/>
   <text fill="#ffffff" font-family="Microsoft YaHei" font-size="12.00" text-anchor="middle" x="758" y="-734.9">
    模拟题(1)
   </text>
  </g>
  <!-- Codeforces&#45;&gt;模拟题 -->
  <g class="edge" id="edge18">
   <title>
    Codeforces-&gt;模拟题
   </title>
   <path d="M525.208,-796.1034C571.9626,-785.6263 637.123,-770.6096 694,-756 700.236,-754.3982 706.793,-752.6399 713.235,-750.8692" fill="none" stroke="#d3d3d3"/>
   <polygon fill="#d3d3d3" points="714.5046,-754.1491 723.201,-748.0974 712.6288,-747.405 714.5046,-754.1491" stroke="#d3d3d3"/>
  </g>
  <!-- 1A -->
  <g class="node" id="node3">
   <title>
    1A
   </title>
   <g id="a_node3">
    <a target="_parent" xlink:href="https://codeforces.com/problemset/problem/1/A" xlink:title="1A. Theatre Square">
     <polygon fill="none" points="175,-684 41,-684 41,-648 175,-648 175,-684" stroke="#adff2f"/>
     <text fill="#000000" font-family="Microsoft YaHei" font-size="12.00" text-anchor="middle" x="108" y="-662.9">
      1A. Theatre Square
     </text>
    </a>
   </g>
  </g>
  <!-- 基础题&#45;&gt;1A -->
  <g class="edge" id="edge2">
   <title>
    基础题-&gt;1A
   </title>
   <path d="M157.3454,-719.8314C149.5886,-711.3694 140.2198,-701.1489 131.739,-691.8971" fill="none" stroke="#d3d3d3"/>
   <polygon fill="#d3d3d3" points="134.2162,-689.4198 124.8788,-684.4133 129.0561,-694.1499 134.2162,-689.4198" stroke="#d3d3d3"/>
  </g>
  <!-- 4A -->
  <g class="node" id="node4">
   <title>
    4A
   </title>
   <g id="a_node4">
    <a target="_parent" xlink:href="https://codeforces.com/problemset/problem/4/A" xlink:title="4A. Watermelon">
     <polygon fill="none" points="164.5,-612 51.5,-612 51.5,-576 164.5,-576 164.5,-612" stroke="#adff2f"/>
     <text fill="#000000" font-family="Microsoft YaHei" font-size="12.00" text-anchor="middle" x="108" y="-590.9">
      4A. Watermelon
     </text>
    </a>
   </g>
  </g>
  <!-- 1A&#45;&gt;4A -->
  <g class="edge" id="edge3">
   <title>
    1A-&gt;4A
   </title>
   <path d="M108,-647.8314C108,-640.131 108,-630.9743 108,-622.4166" fill="none" stroke="#d3d3d3"/>
   <polygon fill="#d3d3d3" points="111.5001,-622.4132 108,-612.4133 104.5001,-622.4133 111.5001,-622.4132" stroke="#d3d3d3"/>
  </g>
  <!-- 5A -->
  <g class="node" id="node5">
   <title>
    5A
   </title>
   <g id="a_node5">
    <a target="_parent" xlink:href="https://codeforces.com/problemset/problem/5/A" xlink:title="5A. Chat Servers Outgoing Traffic">
     <polygon fill="none" points="216,-540 0,-540 0,-504 216,-504 216,-540" stroke="#adff2f"/>
     <text fill="#000000" font-family="Microsoft YaHei" font-size="12.00" text-anchor="middle" x="108" y="-518.9">
      5A. Chat Servers Outgoing Traffic
     </text>
    </a>
   </g>
  </g>
  <!-- 4A&#45;&gt;5A -->
  <g class="edge" id="edge4">
   <title>
    4A-&gt;5A
   </title>
   <path d="M108,-575.8314C108,-568.131 108,-558.9743 108,-550.4166" fill="none" stroke="#d3d3d3"/>
   <polygon fill="#d3d3d3" points="111.5001,-550.4132 108,-540.4133 104.5001,-550.4133 111.5001,-550.4132" stroke="#d3d3d3"/>
  </g>
  <!-- 6A -->
  <g class="node" id="node6">
   <title>
    6A
   </title>
   <g id="a_node6">
    <a target="_parent" xlink:href="https://codeforces.com/problemset/problem/6/A" xlink:title="6A. Triangle">
     <polygon fill="none" points="151.5,-468 64.5,-468 64.5,-432 151.5,-432 151.5,-468" stroke="#adff2f"/>
     <text fill="#000000" font-family="Microsoft YaHei" font-size="12.00" text-anchor="middle" x="108" y="-446.9">
      6A. Triangle
     </text>
    </a>
   </g>
  </g>
  <!-- 5A&#45;&gt;6A -->
  <g class="edge" id="edge5">
   <title>
    5A-&gt;6A
   </title>
   <path d="M108,-503.8314C108,-496.131 108,-486.9743 108,-478.4166" fill="none" stroke="#d3d3d3"/>
   <polygon fill="#d3d3d3" points="111.5001,-478.4132 108,-468.4133 104.5001,-478.4133 111.5001,-478.4132" stroke="#d3d3d3"/>
  </g>
  <!-- 750A -->
  <g class="node" id="node7">
   <title>
    750A
   </title>
   <g id="a_node7">
    <a target="_parent" xlink:href="https://codeforces.com/problemset/problem/750/A" xlink:title="750A. New Year and Hurry">
     <polygon fill="none" points="195.5,-396 20.5,-396 20.5,-360 195.5,-360 195.5,-396" stroke="#adff2f"/>
     <text fill="#000000" font-family="Microsoft YaHei" font-size="12.00" text-anchor="middle" x="108" y="-374.9">
      750A. New Year and Hurry
     </text>
    </a>
   </g>
  </g>
  <!-- 6A&#45;&gt;750A -->
  <g class="edge" id="edge6">
   <title>
    6A-&gt;750A
   </title>
   <path d="M108,-431.8314C108,-424.131 108,-414.9743 108,-406.4166" fill="none" stroke="#d3d3d3"/>
   <polygon fill="#d3d3d3" points="111.5001,-406.4132 108,-396.4133 104.5001,-406.4133 111.5001,-406.4132" stroke="#d3d3d3"/>
  </g>
  <!-- 784E -->
  <g class="node" id="node8">
   <title>
    784E
   </title>
   <g id="a_node8">
    <a target="_parent" xlink:href="https://codeforces.com/problemset/problem/784/E" xlink:title="784E. Twisted Circuit">
     <polygon fill="none" points="178,-324 38,-324 38,-288 178,-288 178,-324" stroke="#ffa500"/>
     <text fill="#000000" font-family="Microsoft YaHei" font-size="12.00" text-anchor="middle" x="108" y="-302.9">
      784E. Twisted Circuit
     </text>
    </a>
   </g>
  </g>
  <!-- 750A&#45;&gt;784E -->
  <g class="edge" id="edge7">
   <title>
    750A-&gt;784E
   </title>
   <path d="M108,-359.8314C108,-352.131 108,-342.9743 108,-334.4166" fill="none" stroke="#d3d3d3"/>
   <polygon fill="#d3d3d3" points="111.5001,-334.4132 108,-324.4133 104.5001,-334.4133 111.5001,-334.4132" stroke="#d3d3d3"/>
  </g>
  <!-- 785A -->
  <g class="node" id="node9">
   <title>
    785A
   </title>
   <g id="a_node9">
    <a target="_parent" xlink:href="https://codeforces.com/problemset/problem/785/A" xlink:title="785A. Anton and Polyhedrons">
     <polygon fill="none" points="204.5,-252 11.5,-252 11.5,-216 204.5,-216 204.5,-252" stroke="#adff2f"/>
     <text fill="#000000" font-family="Microsoft YaHei" font-size="12.00" text-anchor="middle" x="108" y="-230.9">
      785A. Anton and Polyhedrons
     </text>
    </a>
   </g>
  </g>
  <!-- 784E&#45;&gt;785A -->
  <g class="edge" id="edge8">
   <title>
    784E-&gt;785A
   </title>
   <path d="M108,-287.8314C108,-280.131 108,-270.9743 108,-262.4166" fill="none" stroke="#d3d3d3"/>
   <polygon fill="#d3d3d3" points="111.5001,-262.4132 108,-252.4133 104.5001,-262.4133 111.5001,-262.4132" stroke="#d3d3d3"/>
  </g>
  <!-- 802M -->
  <g class="node" id="node10">
   <title>
    802M
   </title>
   <g id="a_node10">
    <a target="_parent" xlink:href="https://codeforces.com/problemset/problem/802/M" xlink:title="802M. April Fools' Problem (easy)">
     <polygon fill="none" points="215.5,-180 .5,-180 .5,-144 215.5,-144 215.5,-180" stroke="#ffa500"/>
     <text fill="#000000" font-family="Microsoft YaHei" font-size="12.00" text-anchor="middle" x="108" y="-158.9">
      802M. April Fools' Problem (easy)
     </text>
    </a>
   </g>
  </g>
  <!-- 785A&#45;&gt;802M -->
  <g class="edge" id="edge9">
   <title>
    785A-&gt;802M
   </title>
   <path d="M108,-215.8314C108,-208.131 108,-198.9743 108,-190.4166" fill="none" stroke="#d3d3d3"/>
   <polygon fill="#d3d3d3" points="111.5001,-190.4132 108,-180.4133 104.5001,-190.4133 111.5001,-190.4132" stroke="#d3d3d3"/>
  </g>
  <!-- 855A -->
  <g class="node" id="node11">
   <title>
    855A
   </title>
   <g id="a_node11">
    <a target="_parent" xlink:href="https://codeforces.com/problemset/problem/855/A" xlink:title="855A. Tom Riddle's Diary">
     <polygon fill="none" points="190,-108 26,-108 26,-72 190,-72 190,-108" stroke="#adff2f"/>
     <text fill="#000000" font-family="Microsoft YaHei" font-size="12.00" text-anchor="middle" x="108" y="-86.9">
      855A. Tom Riddle's Diary
     </text>
    </a>
   </g>
  </g>
  <!-- 802M&#45;&gt;855A -->
  <g class="edge" id="edge10">
   <title>
    802M-&gt;855A
   </title>
   <path d="M108,-143.8314C108,-136.131 108,-126.9743 108,-118.4166" fill="none" stroke="#d3d3d3"/>
   <polygon fill="#d3d3d3" points="111.5001,-118.4132 108,-108.4133 104.5001,-118.4133 111.5001,-118.4132" stroke="#d3d3d3"/>
  </g>
  <!-- 1157B -->
  <g class="node" id="node12">
   <title>
    1157B
   </title>
   <g id="a_node12">
    <a target="_parent" xlink:href="https://codeforces.com/problemset/problem/1157/B" xlink:title="1157B. Long Number">
     <polygon fill="none" points="180,-36 36,-36 36,0 180,0 180,-36" stroke="#ffa500"/>
     <text fill="#000000" font-family="Microsoft YaHei" font-size="12.00" text-anchor="middle" x="108" y="-14.9">
      1157B. Long Number
     </text>
    </a>
   </g>
  </g>
  <!-- 855A&#45;&gt;1157B -->
  <g class="edge" id="edge11">
   <title>
    855A-&gt;1157B
   </title>
   <path d="M108,-71.8314C108,-64.131 108,-54.9743 108,-46.4166" fill="none" stroke="#d3d3d3"/>
   <polygon fill="#d3d3d3" points="111.5001,-46.4132 108,-36.4133 104.5001,-46.4133 111.5001,-46.4132" stroke="#d3d3d3"/>
  </g>
  <!-- 409H -->
  <g class="node" id="node14">
   <title>
    409H
   </title>
   <g id="a_node14">
    <a target="_parent" xlink:href="https://codeforces.com/problemset/problem/409/H" xlink:title="409H. A + B Strikes Back">
     <polygon fill="none" points="359,-684 193,-684 193,-648 359,-648 359,-684" stroke="#ffa500"/>
     <text fill="#000000" font-family="Microsoft YaHei" font-size="12.00" text-anchor="middle" x="276" y="-662.9">
      409H. A + B Strikes Back
     </text>
    </a>
   </g>
  </g>
  <!-- Maths&#45;&gt;409H -->
  <g class="edge" id="edge13">
   <title>
    Maths-&gt;409H
   </title>
   <path d="M296.1868,-719.8314C293.2356,-711.9617 289.7142,-702.5712 286.445,-693.8533" fill="none" stroke="#d3d3d3"/>
   <polygon fill="#d3d3d3" points="289.6934,-692.5476 282.905,-684.4133 283.1391,-695.0055 289.6934,-692.5476" stroke="#d3d3d3"/>
  </g>
  <!-- 1478D -->
  <g class="node" id="node16">
   <title>
    1478D
   </title>
   <g id="a_node16">
    <a target="_parent" xlink:href="https://codeforces.com/problemset/problem/1477/A" xlink:title="1478D. Nezzar and Board">
     <polygon fill="none" points="547,-684 377,-684 377,-648 547,-648 547,-684" stroke="#ffa500"/>
     <text fill="#000000" font-family="Microsoft YaHei" font-size="12.00" text-anchor="middle" x="462" y="-662.9">
      1478D. Nezzar and Board
     </text>
    </a>
   </g>
  </g>
  <!-- 数论&#45;扩展欧几里得算法&#45;&gt;1478D -->
  <g class="edge" id="edge15">
   <title>
    数论-扩展欧几里得算法-&gt;1478D
   </title>
   <path d="M462,-719.8314C462,-712.131 462,-702.9743 462,-694.4166" fill="none" stroke="#d3d3d3"/>
   <polygon fill="#d3d3d3" points="465.5001,-694.4132 462,-684.4133 458.5001,-694.4133 465.5001,-694.4132" stroke="#d3d3d3"/>
  </g>
  <!-- 1156D -->
  <g class="node" id="node18">
   <title>
    1156D
   </title>
   <g id="a_node18">
    <a target="_parent" xlink:href="https://codeforces.com/problemset/problem/1156/D" xlink:title="1156D. 0-1-Tree">
     <polygon fill="none" points="678.5,-684 565.5,-684 565.5,-648 678.5,-648 678.5,-684" stroke="#ff0000"/>
     <text fill="#000000" font-family="Microsoft YaHei" font-size="12.00" text-anchor="middle" x="622" y="-662.9">
      1156D. 0-1-Tree
     </text>
    </a>
   </g>
  </g>
  <!-- 动态规划&#45;树形DP&#45;&gt;1156D -->
  <g class="edge" id="edge17">
   <title>
    动态规划-树形DP-&gt;1156D
   </title>
   <path d="M622,-719.8314C622,-712.131 622,-702.9743 622,-694.4166" fill="none" stroke="#d3d3d3"/>
   <polygon fill="#d3d3d3" points="625.5001,-694.4132 622,-684.4133 618.5001,-694.4133 625.5001,-694.4132" stroke="#d3d3d3"/>
  </g>
  <!-- 1493B -->
  <g class="node" id="node20">
   <title>
    1493B
   </title>
   <g id="a_node20">
    <a target="_parent" xlink:href="https://codeforces.com/problemset/problem/1493/B" xlink:title="1493B. Planet Lapituletti">
     <polygon fill="none" points="859.5,-684 696.5,-684 696.5,-648 859.5,-648 859.5,-684" stroke="#ffa500"/>
     <text fill="#000000" font-family="Microsoft YaHei" font-size="12.00" text-anchor="middle" x="778" y="-662.9">
      1493B. Planet Lapituletti
     </text>
    </a>
   </g>
  </g>
  <!-- 模拟题&#45;&gt;1493B -->
  <g class="edge" id="edge19">
   <title>
    模拟题-&gt;1493B
   </title>
   <path d="M763.0468,-719.8314C765.2094,-712.0463 767.7853,-702.7729 770.1848,-694.1347" fill="none" stroke="#d3d3d3"/>
   <polygon fill="#d3d3d3" points="773.581,-694.9852 772.8852,-684.4133 766.8364,-693.1117 773.581,-694.9852" stroke="#d3d3d3"/>
  </g>
  <g class="key">
   <defs>
    <filter height="1.2" id="solid" width="1.2" x="-0.1" y="-0.1">
     <feFlood flood-color="#ccff90" result="bg"/>
     <feMerge>
      <feMergeNode in="bg"/>
      <feMergeNode in="SourceGraphic"/>
     </feMerge>
    </filter>
   </defs>
   <text filter="url(#solid)" font-family="Microsoft YaHei" font-size="10.00" text-anchor="middle" x="778.0" y="-643.0">
    时间模拟
   </text>
  </g>
 </g>
</svg>