<?xml version="1.0" encoding="utf-8"?>
<!DOCTYPE svg PUBLIC "-//W3C//DTD SVG 1.1//EN" "http://www.w3.org/Graphics/SVG/1.1/DTD/svg11.dtd">
<!-- Generated by graphviz version 2.40.1 (20161225.0304)
 -->
<!-- Title: scallions Pages: 1 -->
<svg height="814pt" viewBox="0.00 0.00 947.5 814.0" width="948pt" xmlns="http://www.w3.org/2000/svg" xmlns:xlink="http://www.w3.org/1999/xlink">
 <g class="graph" id="graph0" transform="scale(1 1) rotate(0) translate(4 760)">
  <title>
   scallions
  </title>
  <polygon fill="#ffffff" points="-4,4 -4,-760 893.5,-760 893.5,4 -4,4" stroke="transparent"/>
  <!-- Leetcode&#45;链表 -->
  <g class="node" id="node1">
   <title>
    Leetcode-链表
   </title>
   <g id="a_node1">
    <a target="_parent" xlink:href="https://leetcode-cn.com/tag/linked-list" xlink:title="Leetcode-链表(36)">
     <polygon fill="#ff4500" points="511,-756 366,-756 366,-720 511,-720 511,-756" stroke="#d3d3d3"/>
     <text fill="#ffffff" font-family="Microsoft YaHei" font-size="14.00" text-anchor="middle" x="438.5" y="-734.3">
      Leetcode-链表(36)
     </text>
    </a>
   </g>
  </g>
  <!-- 链表第一题 -->
  <g class="node" id="node2">
   <title>
    链表第一题
   </title>
   <polygon fill="#778899" points="135,-684 42,-684 42,-648 135,-648 135,-684" stroke="#d3d3d3"/>
   <text fill="#ffffff" font-family="Microsoft YaHei" font-size="12.00" text-anchor="middle" x="88.5" y="-662.9">
    链表第一题(1)
   </text>
  </g>
  <!-- Leetcode&#45;链表&#45;&gt;链表第一题 -->
  <g class="edge" id="edge1">
   <title>
    Leetcode-链表-&gt;链表第一题
   </title>
   <path d="M365.9664,-726.8715C306.7999,-717.2364 221.2465,-702.0312 147.5,-684 146.6125,-683.783 145.7187,-683.5605 144.8198,-683.3331" fill="none" stroke="#d3d3d3"/>
   <polygon fill="#d3d3d3" points="145.6279,-679.9263 135.064,-680.7358 143.827,-686.6907 145.6279,-679.9263" stroke="#d3d3d3"/>
  </g>
  <!-- 反转链表 -->
  <g class="node" id="node4">
   <title>
    反转链表
   </title>
   <polygon fill="#778899" points="238,-684 157,-684 157,-648 238,-648 238,-684" stroke="#d3d3d3"/>
   <text fill="#ffffff" font-family="Microsoft YaHei" font-size="12.00" text-anchor="middle" x="197.5" y="-662.9">
    反转链表(6)
   </text>
  </g>
  <!-- Leetcode&#45;链表&#45;&gt;反转链表 -->
  <g class="edge" id="edge3">
   <title>
    Leetcode-链表-&gt;反转链表
   </title>
   <path d="M377.9966,-719.9243C337.9346,-707.9556 285.994,-692.4381 248.1234,-681.124" fill="none" stroke="#d3d3d3"/>
   <polygon fill="#d3d3d3" points="248.9099,-677.7062 238.3264,-678.1971 246.9061,-684.4133 248.9099,-677.7062" stroke="#d3d3d3"/>
  </g>
  <!-- 删除链表 -->
  <g class="node" id="node11">
   <title>
    删除链表
   </title>
   <polygon fill="#778899" points="362,-684 281,-684 281,-648 362,-648 362,-684" stroke="#d3d3d3"/>
   <text fill="#ffffff" font-family="Microsoft YaHei" font-size="12.00" text-anchor="middle" x="321.5" y="-662.9">
    删除链表(5)
   </text>
  </g>
  <!-- Leetcode&#45;链表&#45;&gt;删除链表 -->
  <g class="edge" id="edge10">
   <title>
    Leetcode-链表-&gt;删除链表
   </title>
   <path d="M408.976,-719.8314C394.0109,-710.6221 375.6614,-699.3301 359.6397,-689.4706" fill="none" stroke="#d3d3d3"/>
   <polygon fill="#d3d3d3" points="361.3655,-686.423 351.0146,-684.1628 357.6968,-692.3847 361.3655,-686.423" stroke="#d3d3d3"/>
  </g>
  <!-- 构建新链表 -->
  <g class="node" id="node17">
   <title>
    构建新链表
   </title>
   <polygon fill="#778899" points="485,-684 392,-684 392,-648 485,-648 485,-684" stroke="#d3d3d3"/>
   <text fill="#ffffff" font-family="Microsoft YaHei" font-size="12.00" text-anchor="middle" x="438.5" y="-662.9">
    构建新链表(9)
   </text>
  </g>
  <!-- Leetcode&#45;链表&#45;&gt;构建新链表 -->
  <g class="edge" id="edge16">
   <title>
    Leetcode-链表-&gt;构建新链表
   </title>
   <path d="M438.5,-719.8314C438.5,-712.131 438.5,-702.9743 438.5,-694.4166" fill="none" stroke="#d3d3d3"/>
   <polygon fill="#d3d3d3" points="442.0001,-694.4132 438.5,-684.4133 435.0001,-694.4133 442.0001,-694.4132" stroke="#d3d3d3"/>
  </g>
  <!-- 快慢指针 -->
  <g class="node" id="node27">
   <title>
    快慢指针
   </title>
   <polygon fill="#778899" points="584,-684 503,-684 503,-648 584,-648 584,-684" stroke="#d3d3d3"/>
   <text fill="#ffffff" font-family="Microsoft YaHei" font-size="12.00" text-anchor="middle" x="543.5" y="-662.9">
    快慢指针(8)
   </text>
  </g>
  <!-- Leetcode&#45;链表&#45;&gt;快慢指针 -->
  <g class="edge" id="edge26">
   <title>
    Leetcode-链表-&gt;快慢指针
   </title>
   <path d="M464.9959,-719.8314C478.1774,-710.7927 494.2847,-699.7476 508.4711,-690.0198" fill="none" stroke="#d3d3d3"/>
   <polygon fill="#d3d3d3" points="510.7446,-692.7047 517.0125,-684.1628 506.7859,-686.9316 510.7446,-692.7047" stroke="#d3d3d3"/>
  </g>
  <!-- 链表和其他算法 -->
  <g class="node" id="node36">
   <title>
    链表和其他算法
   </title>
   <polygon fill="#778899" points="719,-684 602,-684 602,-648 719,-648 719,-684" stroke="#d3d3d3"/>
   <text fill="#ffffff" font-family="Microsoft YaHei" font-size="12.00" text-anchor="middle" x="660.5" y="-662.9">
    链表和其他算法(7)
   </text>
  </g>
  <!-- Leetcode&#45;链表&#45;&gt;链表和其他算法 -->
  <g class="edge" id="edge35">
   <title>
    Leetcode-链表-&gt;链表和其他算法
   </title>
   <path d="M494.2334,-719.9243C524.846,-709.9959 562.9881,-697.6255 595.0155,-687.2382" fill="none" stroke="#d3d3d3"/>
   <polygon fill="#d3d3d3" points="596.3112,-690.4975 604.7436,-684.0831 594.1516,-683.839 596.3112,-690.4975" stroke="#d3d3d3"/>
  </g>
  <!-- 设计题 -->
  <g class="node" id="node44">
   <title>
    设计题
   </title>
   <polygon fill="#778899" points="806,-684 737,-684 737,-648 806,-648 806,-684" stroke="#d3d3d3"/>
   <text fill="#ffffff" font-family="Microsoft YaHei" font-size="12.00" text-anchor="middle" x="771.5" y="-662.9">
    设计题(0)
   </text>
  </g>
  <!-- Leetcode&#45;链表&#45;&gt;设计题 -->
  <g class="edge" id="edge43">
   <title>
    Leetcode-链表-&gt;设计题
   </title>
   <path d="M511.0176,-728.6321C567.6343,-720.3657 648.2226,-706.5089 726.6203,-683.9431" fill="none" stroke="#d3d3d3"/>
   <polygon fill="#d3d3d3" points="728.0531,-687.1705 736.6654,-680.9997 726.0847,-680.4529 728.0531,-687.1705" stroke="#d3d3d3"/>
  </g>
  <!-- 707 -->
  <g class="node" id="node3">
   <title>
    707
   </title>
   <g id="a_node3">
    <a target="_parent" xlink:href="https://leetcode-cn.com/problems/design-linked-list" xlink:title="707. 设计链表">
     <polygon fill="none" points="113,-612 18,-612 18,-576 113,-576 113,-612" stroke="#ffa500"/>
     <text fill="#000000" font-family="Microsoft YaHei" font-size="12.00" text-anchor="middle" x="65.5" y="-590.9">
      707. 设计链表
     </text>
    </a>
   </g>
  </g>
  <!-- 链表第一题&#45;&gt;707 -->
  <g class="edge" id="edge2">
   <title>
    链表第一题-&gt;707
   </title>
   <path d="M82.6961,-647.8314C80.2092,-640.0463 77.2469,-630.7729 74.4875,-622.1347" fill="none" stroke="#d3d3d3"/>
   <polygon fill="#d3d3d3" points="77.7591,-620.874 71.382,-612.4133 71.091,-623.0041 77.7591,-620.874" stroke="#d3d3d3"/>
  </g>
  <!-- 234 -->
  <g class="node" id="node5">
   <title>
    234
   </title>
   <g id="a_node5">
    <a target="_parent" xlink:href="https://leetcode-cn.com/problems/palindrome-linked-list" xlink:title="234. 回文链表">
     <polygon fill="none" points="226,-612 131,-612 131,-576 226,-576 226,-612" stroke="#adff2f"/>
     <text fill="#000000" font-family="Microsoft YaHei" font-size="12.00" text-anchor="middle" x="178.5" y="-590.9">
      234. 回文链表
     </text>
    </a>
   </g>
  </g>
  <!-- 反转链表&#45;&gt;234 -->
  <g class="edge" id="edge4">
   <title>
    反转链表-&gt;234
   </title>
   <path d="M192.7055,-647.8314C190.6511,-640.0463 188.204,-630.7729 185.9244,-622.1347" fill="none" stroke="#d3d3d3"/>
   <polygon fill="#d3d3d3" points="189.2948,-621.1892 183.3591,-612.4133 182.5265,-622.9753 189.2948,-621.1892" stroke="#d3d3d3"/>
  </g>
  <!-- 206 -->
  <g class="node" id="node6">
   <title>
    206
   </title>
   <g id="a_node6">
    <a target="_parent" xlink:href="https://leetcode-cn.com/problems/reverse-linked-list" xlink:title="206. 反转链表">
     <polygon fill="none" points="182,-540 87,-540 87,-504 182,-504 182,-540" stroke="#adff2f"/>
     <text fill="#000000" font-family="Microsoft YaHei" font-size="12.00" text-anchor="middle" x="134.5" y="-518.9">
      206. 反转链表
     </text>
    </a>
   </g>
  </g>
  <!-- 234&#45;&gt;206 -->
  <g class="edge" id="edge5">
   <title>
    234-&gt;206
   </title>
   <path d="M167.3969,-575.8314C162.4326,-567.7079 156.4778,-557.9637 151.0072,-549.0118" fill="none" stroke="#d3d3d3"/>
   <polygon fill="#d3d3d3" points="153.9536,-547.121 145.7526,-540.4133 147.9806,-550.7712 153.9536,-547.121" stroke="#d3d3d3"/>
  </g>
  <!-- 24 -->
  <g class="node" id="node7">
   <title>
    24
   </title>
   <g id="a_node7">
    <a target="_parent" xlink:href="https://leetcode-cn.com/problems/swap-nodes-in-pairs" xlink:title="24. 两两交换链表中的节点">
     <polygon fill="none" points="159,-468 0,-468 0,-432 159,-432 159,-468" stroke="#ffa500"/>
     <text fill="#000000" font-family="Microsoft YaHei" font-size="12.00" text-anchor="middle" x="79.5" y="-446.9">
      24. 两两交换链表中的节点
     </text>
    </a>
   </g>
  </g>
  <!-- 206&#45;&gt;24 -->
  <g class="edge" id="edge6">
   <title>
    206-&gt;24
   </title>
   <path d="M120.6212,-503.8314C114.2864,-495.5386 106.6616,-485.557 99.7074,-476.4533" fill="none" stroke="#d3d3d3"/>
   <polygon fill="#d3d3d3" points="102.4175,-474.2353 93.5657,-468.4133 96.8548,-478.4847 102.4175,-474.2353" stroke="#d3d3d3"/>
  </g>
  <!-- 25 -->
  <g class="node" id="node8">
   <title>
    25
   </title>
   <g id="a_node8">
    <a target="_parent" xlink:href="https://leetcode-cn.com/problems/reverse-nodes-in-k-group" xlink:title="25. K 个一组翻转链表">
     <polygon fill="none" points="147,-396 12,-396 12,-360 147,-360 147,-396" stroke="#ff0000"/>
     <text fill="#000000" font-family="Microsoft YaHei" font-size="12.00" text-anchor="middle" x="79.5" y="-374.9">
      25. K 个一组翻转链表
     </text>
    </a>
   </g>
  </g>
  <!-- 24&#45;&gt;25 -->
  <g class="edge" id="edge7">
   <title>
    24-&gt;25
   </title>
   <path d="M79.5,-431.8314C79.5,-424.131 79.5,-414.9743 79.5,-406.4166" fill="none" stroke="#d3d3d3"/>
   <polygon fill="#d3d3d3" points="83.0001,-406.4132 79.5,-396.4133 76.0001,-406.4133 83.0001,-406.4132" stroke="#d3d3d3"/>
  </g>
  <!-- 92 -->
  <g class="node" id="node9">
   <title>
    92
   </title>
   <g id="a_node9">
    <a target="_parent" xlink:href="https://leetcode-cn.com/problems/reverse-linked-list-ii" xlink:title="92. 反转链表 II">
     <polygon fill="none" points="127.5,-324 29.5,-324 29.5,-288 127.5,-288 127.5,-324" stroke="#ffa500"/>
     <text fill="#000000" font-family="Microsoft YaHei" font-size="12.00" text-anchor="middle" x="78.5" y="-302.9">
      92. 反转链表 II
     </text>
    </a>
   </g>
  </g>
  <!-- 25&#45;&gt;92 -->
  <g class="edge" id="edge8">
   <title>
    25-&gt;92
   </title>
   <path d="M79.2477,-359.8314C79.1407,-352.131 79.0135,-342.9743 78.8947,-334.4166" fill="none" stroke="#d3d3d3"/>
   <polygon fill="#d3d3d3" points="82.3944,-334.3637 78.7557,-324.4133 75.3951,-334.4609 82.3944,-334.3637" stroke="#d3d3d3"/>
  </g>
  <!-- 143 -->
  <g class="node" id="node10">
   <title>
    143
   </title>
   <g id="a_node10">
    <a target="_parent" xlink:href="https://leetcode-cn.com/problems/reorder-list" xlink:title="143. 重排链表">
     <polygon fill="none" points="126,-252 31,-252 31,-216 126,-216 126,-252" stroke="#ffa500"/>
     <text fill="#000000" font-family="Microsoft YaHei" font-size="12.00" text-anchor="middle" x="78.5" y="-230.9">
      143. 重排链表
     </text>
    </a>
   </g>
  </g>
  <!-- 92&#45;&gt;143 -->
  <g class="edge" id="edge9">
   <title>
    92-&gt;143
   </title>
   <path d="M78.5,-287.8314C78.5,-280.131 78.5,-270.9743 78.5,-262.4166" fill="none" stroke="#d3d3d3"/>
   <polygon fill="#d3d3d3" points="82.0001,-262.4132 78.5,-252.4133 75.0001,-262.4133 82.0001,-262.4132" stroke="#d3d3d3"/>
  </g>
  <!-- 237 -->
  <g class="node" id="node12">
   <title>
    237
   </title>
   <g id="a_node12">
    <a target="_parent" xlink:href="https://leetcode-cn.com/problems/delete-node-in-a-linked-list" xlink:title="237. 删除链表中的节点">
     <polygon fill="none" points="387,-612 244,-612 244,-576 387,-576 387,-612" stroke="#adff2f"/>
     <text fill="#000000" font-family="Microsoft YaHei" font-size="12.00" text-anchor="middle" x="315.5" y="-590.9">
      237. 删除链表中的节点
     </text>
    </a>
   </g>
  </g>
  <!-- 删除链表&#45;&gt;237 -->
  <g class="edge" id="edge11">
   <title>
    删除链表-&gt;237
   </title>
   <path d="M319.9859,-647.8314C319.3442,-640.131 318.5812,-630.9743 317.8681,-622.4166" fill="none" stroke="#d3d3d3"/>
   <polygon fill="#d3d3d3" points="321.3529,-622.088 317.0344,-612.4133 314.3771,-622.6694 321.3529,-622.088" stroke="#d3d3d3"/>
  </g>
  <!-- 203 -->
  <g class="node" id="node13">
   <title>
    203
   </title>
   <g id="a_node13">
    <a target="_parent" xlink:href="https://leetcode-cn.com/problems/remove-linked-list-elements" xlink:title="203. 移除链表元素">
     <polygon fill="none" points="351,-540 232,-540 232,-504 351,-504 351,-540" stroke="#adff2f"/>
     <text fill="#000000" font-family="Microsoft YaHei" font-size="12.00" text-anchor="middle" x="291.5" y="-518.9">
      203. 移除链表元素
     </text>
    </a>
   </g>
  </g>
  <!-- 237&#45;&gt;203 -->
  <g class="edge" id="edge12">
   <title>
    237-&gt;203
   </title>
   <path d="M309.4438,-575.8314C306.8488,-568.0463 303.7576,-558.7729 300.8782,-550.1347" fill="none" stroke="#d3d3d3"/>
   <polygon fill="#d3d3d3" points="304.1205,-548.7933 297.6378,-540.4133 297.4797,-551.0069 304.1205,-548.7933" stroke="#d3d3d3"/>
  </g>
  <!-- 83 -->
  <g class="node" id="node14">
   <title>
    83
   </title>
   <g id="a_node14">
    <a target="_parent" xlink:href="https://leetcode-cn.com/problems/remove-duplicates-from-sorted-list" xlink:title="83. 删除排序链表中的重复元素">
     <polygon fill="none" points="360,-468 177,-468 177,-432 360,-432 360,-468" stroke="#adff2f"/>
     <text fill="#000000" font-family="Microsoft YaHei" font-size="12.00" text-anchor="middle" x="268.5" y="-446.9">
      83. 删除排序链表中的重复元素
     </text>
    </a>
   </g>
  </g>
  <!-- 203&#45;&gt;83 -->
  <g class="edge" id="edge13">
   <title>
    203-&gt;83
   </title>
   <path d="M285.6961,-503.8314C283.2092,-496.0463 280.2469,-486.7729 277.4875,-478.1347" fill="none" stroke="#d3d3d3"/>
   <polygon fill="#d3d3d3" points="280.7591,-476.874 274.382,-468.4133 274.091,-479.0041 280.7591,-476.874" stroke="#d3d3d3"/>
  </g>
  <!-- 82 -->
  <g class="node" id="node15">
   <title>
    82
   </title>
   <g id="a_node15">
    <a target="_parent" xlink:href="https://leetcode-cn.com/problems/remove-duplicates-from-sorted-list-ii" xlink:title="82. 删除排序链表中的重复元素 II">
     <polygon fill="none" points="365.5,-396 171.5,-396 171.5,-360 365.5,-360 365.5,-396" stroke="#ffa500"/>
     <text fill="#000000" font-family="Microsoft YaHei" font-size="12.00" text-anchor="middle" x="268.5" y="-374.9">
      82. 删除排序链表中的重复元素 II
     </text>
    </a>
   </g>
   <g transform="translate(357.5, -402.0) scale(0.3)">
    <circle cx="24" cy="24" fill="#4caf50" r="21"/>
    <polygon fill="#ccff90" points="34.6,14.6 21,28.2 15.4,22.6 12.6,25.4 21,33.8 37.4,17.4"/>
   </g>
  </g>
  <!-- 83&#45;&gt;82 -->
  <g class="edge" id="edge14">
   <title>
    83-&gt;82
   </title>
   <path d="M268.5,-431.8314C268.5,-424.131 268.5,-414.9743 268.5,-406.4166" fill="none" stroke="#d3d3d3"/>
   <polygon fill="#d3d3d3" points="272.0001,-406.4132 268.5,-396.4133 265.0001,-406.4133 272.0001,-406.4132" stroke="#d3d3d3"/>
  </g>
  <!-- 1171 -->
  <g class="node" id="node16">
   <title>
    1171
   </title>
   <g id="a_node16">
    <a target="_parent" xlink:href="https://leetcode-cn.com/problems/remove-zero-sum-consecutive-nodes-from-linked-list" xlink:title="1171. 从链表中删去总和值为零的连续节点">
     <polygon fill="none" points="391.5,-324 145.5,-324 145.5,-288 391.5,-288 391.5,-324" stroke="#ffa500"/>
     <text fill="#000000" font-family="Microsoft YaHei" font-size="12.00" text-anchor="middle" x="268.5" y="-302.9">
      1171. 从链表中删去总和值为零的连续节点
     </text>
    </a>
   </g>
  </g>
  <!-- 82&#45;&gt;1171 -->
  <g class="edge" id="edge15">
   <title>
    82-&gt;1171
   </title>
   <path d="M268.5,-359.8314C268.5,-352.131 268.5,-342.9743 268.5,-334.4166" fill="none" stroke="#d3d3d3"/>
   <polygon fill="#d3d3d3" points="272.0001,-334.4132 268.5,-324.4133 265.0001,-334.4133 272.0001,-334.4132" stroke="#d3d3d3"/>
  </g>
  <!-- 2 -->
  <g class="node" id="node18">
   <title>
    2
   </title>
   <g id="a_node18">
    <a target="_parent" xlink:href="https://leetcode-cn.com/problems/add-two-numbers" xlink:title="2. 两数相加">
     <polygon fill="none" points="485.5,-612 405.5,-612 405.5,-576 485.5,-576 485.5,-612" stroke="#ffa500"/>
     <text fill="#000000" font-family="Microsoft YaHei" font-size="12.00" text-anchor="middle" x="445.5" y="-590.9">
      2. 两数相加
     </text>
    </a>
   </g>
   <g transform="translate(477.5, -618.0) scale(0.3)">
    <circle cx="24" cy="24" fill="#4caf50" r="21"/>
    <polygon fill="#ccff90" points="34.6,14.6 21,28.2 15.4,22.6 12.6,25.4 21,33.8 37.4,17.4"/>
   </g>
  </g>
  <!-- 构建新链表&#45;&gt;2 -->
  <g class="edge" id="edge17">
   <title>
    构建新链表-&gt;2
   </title>
   <path d="M440.2664,-647.8314C441.015,-640.131 441.9053,-630.9743 442.7373,-622.4166" fill="none" stroke="#d3d3d3"/>
   <polygon fill="#d3d3d3" points="446.2256,-622.7051 443.7098,-612.4133 439.2585,-622.0276 446.2256,-622.7051" stroke="#d3d3d3"/>
  </g>
  <!-- 445 -->
  <g class="node" id="node19">
   <title>
    445
   </title>
   <g id="a_node19">
    <a target="_parent" xlink:href="https://leetcode-cn.com/problems/add-two-numbers-ii" xlink:title="445. 两数相加 II">
     <polygon fill="none" points="498.5,-540 392.5,-540 392.5,-504 498.5,-504 498.5,-540" stroke="#ffa500"/>
     <text fill="#000000" font-family="Microsoft YaHei" font-size="12.00" text-anchor="middle" x="445.5" y="-518.9">
      445. 两数相加 II
     </text>
    </a>
   </g>
  </g>
  <!-- 2&#45;&gt;445 -->
  <g class="edge" id="edge18">
   <title>
    2-&gt;445
   </title>
   <path d="M445.5,-575.8314C445.5,-568.131 445.5,-558.9743 445.5,-550.4166" fill="none" stroke="#d3d3d3"/>
   <polygon fill="#d3d3d3" points="449.0001,-550.4132 445.5,-540.4133 442.0001,-550.4133 449.0001,-550.4132" stroke="#d3d3d3"/>
  </g>
  <!-- 430 -->
  <g class="node" id="node20">
   <title>
    430
   </title>
   <g id="a_node20">
    <a target="_parent" xlink:href="https://leetcode-cn.com/problems/flatten-a-multilevel-doubly-linked-list" xlink:title="430. 扁平化多级双向链表">
     <polygon fill="none" points="533,-468 378,-468 378,-432 533,-432 533,-468" stroke="#ffa500"/>
     <text fill="#000000" font-family="Microsoft YaHei" font-size="12.00" text-anchor="middle" x="455.5" y="-446.9">
      430. 扁平化多级双向链表
     </text>
    </a>
   </g>
   <g transform="translate(525.0, -474.0) scale(0.3)">
    <circle cx="24" cy="24" fill="#4caf50" r="21"/>
    <polygon fill="#ccff90" points="34.6,14.6 21,28.2 15.4,22.6 12.6,25.4 21,33.8 37.4,17.4"/>
   </g>
  </g>
  <!-- 445&#45;&gt;430 -->
  <g class="edge" id="edge19">
   <title>
    445-&gt;430
   </title>
   <path d="M448.0234,-503.8314C449.0929,-496.131 450.3647,-486.9743 451.5532,-478.4166" fill="none" stroke="#d3d3d3"/>
   <polygon fill="#d3d3d3" points="455.0336,-478.7997 452.9426,-468.4133 448.1001,-477.8367 455.0336,-478.7997" stroke="#d3d3d3"/>
  </g>
  <!-- 1669 -->
  <g class="node" id="node21">
   <title>
    1669
   </title>
   <g id="a_node21">
    <a target="_parent" xlink:href="https://leetcode-cn.com/problems/merge-in-between-linked-lists" xlink:title="1669. 合并两个链表">
     <polygon fill="none" points="517.5,-396 391.5,-396 391.5,-360 517.5,-360 517.5,-396" stroke="#ffa500"/>
     <text fill="#000000" font-family="Microsoft YaHei" font-size="12.00" text-anchor="middle" x="454.5" y="-374.9">
      1669. 合并两个链表
     </text>
    </a>
   </g>
  </g>
  <!-- 430&#45;&gt;1669 -->
  <g class="edge" id="edge20">
   <title>
    430-&gt;1669
   </title>
   <path d="M455.2477,-431.8314C455.1407,-424.131 455.0135,-414.9743 454.8947,-406.4166" fill="none" stroke="#d3d3d3"/>
   <polygon fill="#d3d3d3" points="458.3944,-406.3637 454.7557,-396.4133 451.3951,-406.4609 458.3944,-406.3637" stroke="#d3d3d3"/>
  </g>
  <!-- 86 -->
  <g class="node" id="node22">
   <title>
    86
   </title>
   <g id="a_node22">
    <a target="_parent" xlink:href="https://leetcode-cn.com/problems/partition-list" xlink:title="86. 分隔链表">
     <polygon fill="none" points="498,-324 411,-324 411,-288 498,-288 498,-324" stroke="#ffa500"/>
     <text fill="#000000" font-family="Microsoft YaHei" font-size="12.00" text-anchor="middle" x="454.5" y="-302.9">
      86. 分隔链表
     </text>
    </a>
   </g>
  </g>
  <!-- 1669&#45;&gt;86 -->
  <g class="edge" id="edge21">
   <title>
    1669-&gt;86
   </title>
   <path d="M454.5,-359.8314C454.5,-352.131 454.5,-342.9743 454.5,-334.4166" fill="none" stroke="#d3d3d3"/>
   <polygon fill="#d3d3d3" points="458.0001,-334.4132 454.5,-324.4133 451.0001,-334.4133 458.0001,-334.4132" stroke="#d3d3d3"/>
  </g>
  <!-- 328 -->
  <g class="node" id="node23">
   <title>
    328
   </title>
   <g id="a_node23">
    <a target="_parent" xlink:href="https://leetcode-cn.com/problems/odd-even-linked-list" xlink:title="328. 奇偶链表">
     <polygon fill="none" points="502,-252 407,-252 407,-216 502,-216 502,-252" stroke="#ffa500"/>
     <text fill="#000000" font-family="Microsoft YaHei" font-size="12.00" text-anchor="middle" x="454.5" y="-230.9">
      328. 奇偶链表
     </text>
    </a>
   </g>
  </g>
  <!-- 86&#45;&gt;328 -->
  <g class="edge" id="edge22">
   <title>
    86-&gt;328
   </title>
   <path d="M454.5,-287.8314C454.5,-280.131 454.5,-270.9743 454.5,-262.4166" fill="none" stroke="#d3d3d3"/>
   <polygon fill="#d3d3d3" points="458.0001,-262.4132 454.5,-252.4133 451.0001,-262.4133 458.0001,-262.4132" stroke="#d3d3d3"/>
  </g>
  <!-- 725 -->
  <g class="node" id="node24">
   <title>
    725
   </title>
   <g id="a_node24">
    <a target="_parent" xlink:href="https://leetcode-cn.com/problems/split-linked-list-in-parts" xlink:title="725. 分隔链表">
     <polygon fill="none" points="502,-180 407,-180 407,-144 502,-144 502,-180" stroke="#ffa500"/>
     <text fill="#000000" font-family="Microsoft YaHei" font-size="12.00" text-anchor="middle" x="454.5" y="-158.9">
      725. 分隔链表
     </text>
    </a>
   </g>
   <g transform="translate(494.0, -186.0) scale(0.3)">
    <circle cx="24" cy="24" fill="#4caf50" r="21"/>
    <polygon fill="#ccff90" points="34.6,14.6 21,28.2 15.4,22.6 12.6,25.4 21,33.8 37.4,17.4"/>
   </g>
  </g>
  <!-- 328&#45;&gt;725 -->
  <g class="edge" id="edge23">
   <title>
    328-&gt;725
   </title>
   <path d="M454.5,-215.8314C454.5,-208.131 454.5,-198.9743 454.5,-190.4166" fill="none" stroke="#d3d3d3"/>
   <polygon fill="#d3d3d3" points="458.0001,-190.4132 454.5,-180.4133 451.0001,-190.4133 458.0001,-190.4132" stroke="#d3d3d3"/>
  </g>
  <!-- 21 -->
  <g class="node" id="node25">
   <title>
    21
   </title>
   <g id="a_node25">
    <a target="_parent" xlink:href="https://leetcode-cn.com/problems/merge-two-sorted-lists" xlink:title="21. 合并两个有序链表">
     <polygon fill="none" points="522,-108 387,-108 387,-72 522,-72 522,-108" stroke="#adff2f"/>
     <text fill="#000000" font-family="Microsoft YaHei" font-size="12.00" text-anchor="middle" x="454.5" y="-86.9">
      21. 合并两个有序链表
     </text>
    </a>
   </g>
  </g>
  <!-- 725&#45;&gt;21 -->
  <g class="edge" id="edge24">
   <title>
    725-&gt;21
   </title>
   <path d="M454.5,-143.8314C454.5,-136.131 454.5,-126.9743 454.5,-118.4166" fill="none" stroke="#d3d3d3"/>
   <polygon fill="#d3d3d3" points="458.0001,-118.4132 454.5,-108.4133 451.0001,-118.4133 458.0001,-118.4132" stroke="#d3d3d3"/>
  </g>
  <!-- 23 -->
  <g class="node" id="node26">
   <title>
    23
   </title>
   <g id="a_node26">
    <a target="_parent" xlink:href="https://leetcode-cn.com/problems/merge-k-sorted-lists" xlink:title="23. 合并K个升序链表">
     <polygon fill="none" points="520,-36 389,-36 389,0 520,0 520,-36" stroke="#ff0000"/>
     <text fill="#000000" font-family="Microsoft YaHei" font-size="12.00" text-anchor="middle" x="454.5" y="-14.9">
      23. 合并K个升序链表
     </text>
    </a>
   </g>
  </g>
  <!-- 21&#45;&gt;23 -->
  <g class="edge" id="edge25">
   <title>
    21-&gt;23
   </title>
   <path d="M454.5,-71.8314C454.5,-64.131 454.5,-54.9743 454.5,-46.4166" fill="none" stroke="#d3d3d3"/>
   <polygon fill="#d3d3d3" points="458.0001,-46.4132 454.5,-36.4133 451.0001,-46.4133 458.0001,-46.4132" stroke="#d3d3d3"/>
  </g>
  <!-- 876 -->
  <g class="node" id="node28">
   <title>
    876
   </title>
   <g id="a_node28">
    <a target="_parent" xlink:href="https://leetcode-cn.com/problems/middle-of-the-linked-list" xlink:title="876. 链表的中间结点">
     <polygon fill="none" points="655,-612 524,-612 524,-576 655,-576 655,-612" stroke="#adff2f"/>
     <text fill="#000000" font-family="Microsoft YaHei" font-size="12.00" text-anchor="middle" x="589.5" y="-590.9">
      876. 链表的中间结点
     </text>
    </a>
   </g>
  </g>
  <!-- 快慢指针&#45;&gt;876 -->
  <g class="edge" id="edge27">
   <title>
    快慢指针-&gt;876
   </title>
   <path d="M555.1077,-647.8314C560.2978,-639.7079 566.5232,-629.9637 572.2425,-621.0118" fill="none" stroke="#d3d3d3"/>
   <polygon fill="#d3d3d3" points="575.3015,-622.7246 577.736,-612.4133 569.4026,-618.9559 575.3015,-622.7246" stroke="#d3d3d3"/>
  </g>
  <!-- 19 -->
  <g class="node" id="node29">
   <title>
    19
   </title>
   <g id="a_node29">
    <a target="_parent" xlink:href="https://leetcode-cn.com/problems/remove-nth-node-from-end-of-list" xlink:title="19. 删除链表的倒数第 N 个结点">
     <polygon fill="none" points="704.5,-540 516.5,-540 516.5,-504 704.5,-504 704.5,-540" stroke="#ffa500"/>
     <text fill="#000000" font-family="Microsoft YaHei" font-size="12.00" text-anchor="middle" x="610.5" y="-518.9">
      19. 删除链表的倒数第 N 个结点
     </text>
    </a>
   </g>
  </g>
  <!-- 876&#45;&gt;19 -->
  <g class="edge" id="edge28">
   <title>
    876-&gt;19
   </title>
   <path d="M594.7992,-575.8314C597.0698,-568.0463 599.7746,-558.7729 602.294,-550.1347" fill="none" stroke="#d3d3d3"/>
   <polygon fill="#d3d3d3" points="605.6894,-550.9933 605.1295,-540.4133 598.9694,-549.0332 605.6894,-550.9933" stroke="#d3d3d3"/>
  </g>
  <!-- 61 -->
  <g class="node" id="node30">
   <title>
    61
   </title>
   <g id="a_node30">
    <a target="_parent" xlink:href="https://leetcode-cn.com/problems/rotate-list" xlink:title="61. 旋转链表">
     <polygon fill="none" points="654,-468 567,-468 567,-432 654,-432 654,-468" stroke="#ffa500"/>
     <text fill="#000000" font-family="Microsoft YaHei" font-size="12.00" text-anchor="middle" x="610.5" y="-446.9">
      61. 旋转链表
     </text>
    </a>
   </g>
  </g>
  <!-- 19&#45;&gt;61 -->
  <g class="edge" id="edge29">
   <title>
    19-&gt;61
   </title>
   <path d="M610.5,-503.8314C610.5,-496.131 610.5,-486.9743 610.5,-478.4166" fill="none" stroke="#d3d3d3"/>
   <polygon fill="#d3d3d3" points="614.0001,-478.4132 610.5,-468.4133 607.0001,-478.4133 614.0001,-478.4132" stroke="#d3d3d3"/>
  </g>
  <!-- 1721 -->
  <g class="node" id="node31">
   <title>
    1721
   </title>
   <g id="a_node31">
    <a target="_parent" xlink:href="https://leetcode-cn.com/problems/swapping-nodes-in-a-linked-list" xlink:title="1721. 交换链表中的节点">
     <polygon fill="none" points="685.5,-396 535.5,-396 535.5,-360 685.5,-360 685.5,-396" stroke="#ffa500"/>
     <text fill="#000000" font-family="Microsoft YaHei" font-size="12.00" text-anchor="middle" x="610.5" y="-374.9">
      1721. 交换链表中的节点
     </text>
    </a>
   </g>
  </g>
  <!-- 61&#45;&gt;1721 -->
  <g class="edge" id="edge30">
   <title>
    61-&gt;1721
   </title>
   <path d="M610.5,-431.8314C610.5,-424.131 610.5,-414.9743 610.5,-406.4166" fill="none" stroke="#d3d3d3"/>
   <polygon fill="#d3d3d3" points="614.0001,-406.4132 610.5,-396.4133 607.0001,-406.4133 614.0001,-406.4132" stroke="#d3d3d3"/>
  </g>
  <!-- 109 -->
  <g class="node" id="node32">
   <title>
    109
   </title>
   <g id="a_node32">
    <a target="_parent" xlink:href="https://leetcode-cn.com/problems/convert-sorted-list-to-binary-search-tree" xlink:title="109. 有序链表转换二叉搜索树">
     <polygon fill="none" points="700,-324 521,-324 521,-288 700,-288 700,-324" stroke="#ffa500"/>
     <text fill="#000000" font-family="Microsoft YaHei" font-size="12.00" text-anchor="middle" x="610.5" y="-302.9">
      109. 有序链表转换二叉搜索树
     </text>
    </a>
   </g>
  </g>
  <!-- 1721&#45;&gt;109 -->
  <g class="edge" id="edge31">
   <title>
    1721-&gt;109
   </title>
   <path d="M610.5,-359.8314C610.5,-352.131 610.5,-342.9743 610.5,-334.4166" fill="none" stroke="#d3d3d3"/>
   <polygon fill="#d3d3d3" points="614.0001,-334.4132 610.5,-324.4133 607.0001,-334.4133 614.0001,-334.4132" stroke="#d3d3d3"/>
  </g>
  <!-- 141 -->
  <g class="node" id="node33">
   <title>
    141
   </title>
   <g id="a_node33">
    <a target="_parent" xlink:href="https://leetcode-cn.com/problems/linked-list-cycle" xlink:title="141. 环形链表">
     <polygon fill="none" points="658,-252 563,-252 563,-216 658,-216 658,-252" stroke="#adff2f"/>
     <text fill="#000000" font-family="Microsoft YaHei" font-size="12.00" text-anchor="middle" x="610.5" y="-230.9">
      141. 环形链表
     </text>
    </a>
   </g>
  </g>
  <!-- 109&#45;&gt;141 -->
  <g class="edge" id="edge32">
   <title>
    109-&gt;141
   </title>
   <path d="M610.5,-287.8314C610.5,-280.131 610.5,-270.9743 610.5,-262.4166" fill="none" stroke="#d3d3d3"/>
   <polygon fill="#d3d3d3" points="614.0001,-262.4132 610.5,-252.4133 607.0001,-262.4133 614.0001,-262.4132" stroke="#d3d3d3"/>
  </g>
  <!-- 160 -->
  <g class="node" id="node34">
   <title>
    160
   </title>
   <g id="a_node34">
    <a target="_parent" xlink:href="https://leetcode-cn.com/problems/intersection-of-two-linked-lists" xlink:title="160. 相交链表">
     <polygon fill="none" points="658,-180 563,-180 563,-144 658,-144 658,-180" stroke="#adff2f"/>
     <text fill="#000000" font-family="Microsoft YaHei" font-size="12.00" text-anchor="middle" x="610.5" y="-158.9">
      160. 相交链表
     </text>
    </a>
   </g>
  </g>
  <!-- 141&#45;&gt;160 -->
  <g class="edge" id="edge33">
   <title>
    141-&gt;160
   </title>
   <path d="M610.5,-215.8314C610.5,-208.131 610.5,-198.9743 610.5,-190.4166" fill="none" stroke="#d3d3d3"/>
   <polygon fill="#d3d3d3" points="614.0001,-190.4132 610.5,-180.4133 607.0001,-190.4133 614.0001,-190.4132" stroke="#d3d3d3"/>
  </g>
  <!-- 142 -->
  <g class="node" id="node35">
   <title>
    142
   </title>
   <g id="a_node35">
    <a target="_parent" xlink:href="https://leetcode-cn.com/problems/linked-list-cycle-ii" xlink:title="142. 环形链表 II">
     <polygon fill="none" points="663.5,-108 557.5,-108 557.5,-72 663.5,-72 663.5,-108" stroke="#ffa500"/>
     <text fill="#000000" font-family="Microsoft YaHei" font-size="12.00" text-anchor="middle" x="610.5" y="-86.9">
      142. 环形链表 II
     </text>
    </a>
   </g>
  </g>
  <!-- 160&#45;&gt;142 -->
  <g class="edge" id="edge34">
   <title>
    160-&gt;142
   </title>
   <path d="M610.5,-143.8314C610.5,-136.131 610.5,-126.9743 610.5,-118.4166" fill="none" stroke="#d3d3d3"/>
   <polygon fill="#d3d3d3" points="614.0001,-118.4132 610.5,-108.4133 607.0001,-118.4133 614.0001,-118.4132" stroke="#d3d3d3"/>
  </g>
  <!-- 1290 -->
  <g class="node" id="node37">
   <title>
    1290
   </title>
   <g id="a_node37">
    <a target="_parent" xlink:href="https://leetcode-cn.com/problems/convert-binary-number-in-a-linked-list-to-integer" xlink:title="1290. 二进制链表转整数">
     <polygon fill="none" points="837.5,-612 687.5,-612 687.5,-576 837.5,-576 837.5,-612" stroke="#adff2f"/>
     <text fill="#000000" font-family="Microsoft YaHei" font-size="12.00" text-anchor="middle" x="762.5" y="-590.9">
      1290. 二进制链表转整数
     </text>
    </a>
   </g>
  </g>
  <!-- 链表和其他算法&#45;&gt;1290 -->
  <g class="edge" id="edge36">
   <title>
    链表和其他算法-&gt;1290
   </title>
   <path d="M686.2389,-647.8314C699.0437,-638.7927 714.6909,-627.7476 728.4719,-618.0198" fill="none" stroke="#d3d3d3"/>
   <polygon fill="#d3d3d3" points="730.618,-620.7891 736.7693,-612.1628 726.5812,-615.0703 730.618,-620.7891" stroke="#d3d3d3"/>
  </g>
  <!-- 817 -->
  <g class="node" id="node38">
   <title>
    817
   </title>
   <g id="a_node38">
    <a target="_parent" xlink:href="https://leetcode-cn.com/problems/linked-list-components" xlink:title="817. 链表组件">
     <polygon fill="none" points="824,-540 729,-540 729,-504 824,-504 824,-540" stroke="#ffa500"/>
     <text fill="#000000" font-family="Microsoft YaHei" font-size="12.00" text-anchor="middle" x="776.5" y="-518.9">
      817. 链表组件
     </text>
    </a>
   </g>
  </g>
  <!-- 1290&#45;&gt;817 -->
  <g class="edge" id="edge37">
   <title>
    1290-&gt;817
   </title>
   <path d="M766.0328,-575.8314C767.5301,-568.131 769.3105,-558.9743 770.9745,-550.4166" fill="none" stroke="#d3d3d3"/>
   <polygon fill="#d3d3d3" points="774.4465,-550.8975 772.9196,-540.4133 767.5752,-549.5614 774.4465,-550.8975" stroke="#d3d3d3"/>
  </g>
  <!-- 1367 -->
  <g class="node" id="node39">
   <title>
    1367
   </title>
   <g id="a_node39">
    <a target="_parent" xlink:href="https://leetcode-cn.com/problems/linked-list-in-binary-tree" xlink:title="1367. 二叉树中的列表">
     <polygon fill="none" points="858.5,-468 720.5,-468 720.5,-432 858.5,-432 858.5,-468" stroke="#ffa500"/>
     <text fill="#000000" font-family="Microsoft YaHei" font-size="12.00" text-anchor="middle" x="789.5" y="-446.9">
      1367. 二叉树中的列表
     </text>
    </a>
   </g>
  </g>
  <!-- 817&#45;&gt;1367 -->
  <g class="edge" id="edge38">
   <title>
    817-&gt;1367
   </title>
   <path d="M779.7804,-503.8314C781.1708,-496.131 782.8241,-486.9743 784.3692,-478.4166" fill="none" stroke="#d3d3d3"/>
   <polygon fill="#d3d3d3" points="787.8428,-478.8761 786.1754,-468.4133 780.9542,-477.6322 787.8428,-478.8761" stroke="#d3d3d3"/>
  </g>
  <!-- 1019 -->
  <g class="node" id="node40">
   <title>
    1019
   </title>
   <g id="a_node40">
    <a target="_parent" xlink:href="https://leetcode-cn.com/problems/next-greater-node-in-linked-list" xlink:title="1019. 链表中的下一个更大节点">
     <polygon fill="none" points="889.5,-396 703.5,-396 703.5,-360 889.5,-360 889.5,-396" stroke="#ffa500"/>
     <text fill="#000000" font-family="Microsoft YaHei" font-size="12.00" text-anchor="middle" x="796.5" y="-374.9">
      1019. 链表中的下一个更大节点
     </text>
    </a>
   </g>
  </g>
  <!-- 1367&#45;&gt;1019 -->
  <g class="edge" id="edge39">
   <title>
    1367-&gt;1019
   </title>
   <path d="M791.2664,-431.8314C792.015,-424.131 792.9053,-414.9743 793.7373,-406.4166" fill="none" stroke="#d3d3d3"/>
   <polygon fill="#d3d3d3" points="797.2256,-406.7051 794.7098,-396.4133 790.2585,-406.0276 797.2256,-406.7051" stroke="#d3d3d3"/>
  </g>
  <!-- 147 -->
  <g class="node" id="node41">
   <title>
    147
   </title>
   <g id="a_node41">
    <a target="_parent" xlink:href="https://leetcode-cn.com/problems/insertion-sort-list" xlink:title="147. 对链表进行插入排序">
     <polygon fill="none" points="874,-324 719,-324 719,-288 874,-288 874,-324" stroke="#ffa500"/>
     <text fill="#000000" font-family="Microsoft YaHei" font-size="12.00" text-anchor="middle" x="796.5" y="-302.9">
      147. 对链表进行插入排序
     </text>
    </a>
   </g>
  </g>
  <!-- 1019&#45;&gt;147 -->
  <g class="edge" id="edge40">
   <title>
    1019-&gt;147
   </title>
   <path d="M796.5,-359.8314C796.5,-352.131 796.5,-342.9743 796.5,-334.4166" fill="none" stroke="#d3d3d3"/>
   <polygon fill="#d3d3d3" points="800.0001,-334.4132 796.5,-324.4133 793.0001,-334.4133 800.0001,-334.4132" stroke="#d3d3d3"/>
  </g>
  <!-- 148 -->
  <g class="node" id="node42">
   <title>
    148
   </title>
   <g id="a_node42">
    <a target="_parent" xlink:href="https://leetcode-cn.com/problems/sort-list" xlink:title="148. 排序链表">
     <polygon fill="none" points="844,-252 749,-252 749,-216 844,-216 844,-252" stroke="#ffa500"/>
     <text fill="#000000" font-family="Microsoft YaHei" font-size="12.00" text-anchor="middle" x="796.5" y="-230.9">
      148. 排序链表
     </text>
    </a>
   </g>
  </g>
  <!-- 147&#45;&gt;148 -->
  <g class="edge" id="edge41">
   <title>
    147-&gt;148
   </title>
   <path d="M796.5,-287.8314C796.5,-280.131 796.5,-270.9743 796.5,-262.4166" fill="none" stroke="#d3d3d3"/>
   <polygon fill="#d3d3d3" points="800.0001,-262.4132 796.5,-252.4133 793.0001,-262.4133 800.0001,-262.4132" stroke="#d3d3d3"/>
  </g>
  <!-- 138 -->
  <g class="node" id="node43">
   <title>
    138
   </title>
   <g id="a_node43">
    <a target="_parent" xlink:href="https://leetcode-cn.com/problems/copy-list-with-random-pointer" xlink:title="138. 复制带随机指针的链表">
     <polygon fill="none" points="880,-180 713,-180 713,-144 880,-144 880,-180" stroke="#ffa500"/>
     <text fill="#000000" font-family="Microsoft YaHei" font-size="12.00" text-anchor="middle" x="796.5" y="-158.9">
      138. 复制带随机指针的链表
     </text>
    </a>
   </g>
  </g>
  <!-- 148&#45;&gt;138 -->
  <g class="edge" id="edge42">
   <title>
    148-&gt;138
   </title>
   <path d="M796.5,-215.8314C796.5,-208.131 796.5,-198.9743 796.5,-190.4166" fill="none" stroke="#d3d3d3"/>
   <polygon fill="#d3d3d3" points="800.0001,-190.4132 796.5,-180.4133 793.0001,-190.4133 800.0001,-190.4132" stroke="#d3d3d3"/>
  </g>
  <g class="key">
   <defs>
    <filter height="1.2" id="solid" width="1.2" x="-0.1" y="-0.1">
     <feFlood flood-color="#ccff90" result="bg"/>
     <feMerge>
      <feMergeNode in="bg"/>
      <feMergeNode in="SourceGraphic"/>
     </feMerge>
    </filter>
   </defs>
   <text filter="url(#solid)" font-family="Microsoft YaHei" font-size="10.00" text-anchor="middle" x="65.5" y="-571.0">
    链表增删改查
   </text>
  </g>
  <g class="key">
   <defs>
    <filter height="1.2" id="solid" width="1.2" x="-0.1" y="-0.1">
     <feFlood flood-color="#ccff90" result="bg"/>
     <feMerge>
      <feMergeNode in="bg"/>
      <feMergeNode in="SourceGraphic"/>
     </feMerge>
    </filter>
   </defs>
   <text filter="url(#solid)" font-family="Microsoft YaHei" font-size="10.00" text-anchor="middle" x="315.5" y="-571.0">
    简单删除
   </text>
  </g>
  <g class="key">
   <defs>
    <filter height="1.2" id="solid" width="1.2" x="-0.1" y="-0.1">
     <feFlood flood-color="#ccff90" result="bg"/>
     <feMerge>
      <feMergeNode in="bg"/>
      <feMergeNode in="SourceGraphic"/>
     </feMerge>
    </filter>
   </defs>
   <text filter="url(#solid)" font-family="Microsoft YaHei" font-size="10.00" text-anchor="middle" x="291.5" y="-499.0">
    删除多个
   </text>
  </g>
  <g class="key">
   <defs>
    <filter height="1.2" id="solid" width="1.2" x="-0.1" y="-0.1">
     <feFlood flood-color="#ccff90" result="bg"/>
     <feMerge>
      <feMergeNode in="bg"/>
      <feMergeNode in="SourceGraphic"/>
     </feMerge>
    </filter>
   </defs>
   <text filter="url(#solid)" font-family="Microsoft YaHei" font-size="10.00" text-anchor="middle" x="268.5" y="-283.0">
    区间和
   </text>
  </g>
  <g class="key">
   <defs>
    <filter height="1.2" id="solid" width="1.2" x="-0.1" y="-0.1">
     <feFlood flood-color="#ccff90" result="bg"/>
     <feMerge>
      <feMergeNode in="bg"/>
      <feMergeNode in="SourceGraphic"/>
     </feMerge>
    </filter>
   </defs>
   <text filter="url(#solid)" font-family="Microsoft YaHei" font-size="10.00" text-anchor="middle" x="454.5" y="5.0">
    堆
   </text>
  </g>
  <g class="key">
   <defs>
    <filter height="1.2" id="solid" width="1.2" x="-0.1" y="-0.1">
     <feFlood flood-color="#ccff90" result="bg"/>
     <feMerge>
      <feMergeNode in="bg"/>
      <feMergeNode in="SourceGraphic"/>
     </feMerge>
    </filter>
   </defs>
   <text filter="url(#solid)" font-family="Microsoft YaHei" font-size="10.00" text-anchor="middle" x="610.5" y="-139.0">
    路程相等
   </text>
  </g>
  <g class="key">
   <defs>
    <filter height="1.2" id="solid" width="1.2" x="-0.1" y="-0.1">
     <feFlood flood-color="#ccff90" result="bg"/>
     <feMerge>
      <feMergeNode in="bg"/>
      <feMergeNode in="SourceGraphic"/>
     </feMerge>
    </filter>
   </defs>
   <text filter="url(#solid)" font-family="Microsoft YaHei" font-size="10.00" text-anchor="middle" x="610.5" y="-67.0">
    公式推理
   </text>
  </g>
  <g class="key">
   <defs>
    <filter height="1.2" id="solid" width="1.2" x="-0.1" y="-0.1">
     <feFlood flood-color="#ccff90" result="bg"/>
     <feMerge>
      <feMergeNode in="bg"/>
      <feMergeNode in="SourceGraphic"/>
     </feMerge>
    </filter>
   </defs>
   <text filter="url(#solid)" font-family="Microsoft YaHei" font-size="10.00" text-anchor="middle" x="762.5" y="-571.0">
    位运算
   </text>
  </g>
  <g class="key">
   <defs>
    <filter height="1.2" id="solid" width="1.2" x="-0.1" y="-0.1">
     <feFlood flood-color="#ccff90" result="bg"/>
     <feMerge>
      <feMergeNode in="bg"/>
      <feMergeNode in="SourceGraphic"/>
     </feMerge>
    </filter>
   </defs>
   <text filter="url(#solid)" font-family="Microsoft YaHei" font-size="10.00" text-anchor="middle" x="776.5" y="-499.0">
    set
   </text>
  </g>
  <g class="key">
   <defs>
    <filter height="1.2" id="solid" width="1.2" x="-0.1" y="-0.1">
     <feFlood flood-color="#ccff90" result="bg"/>
     <feMerge>
      <feMergeNode in="bg"/>
      <feMergeNode in="SourceGraphic"/>
     </feMerge>
    </filter>
   </defs>
   <text filter="url(#solid)" font-family="Microsoft YaHei" font-size="10.00" text-anchor="middle" x="789.5" y="-427.0">
    二叉树搜索
   </text>
  </g>
  <g class="key">
   <defs>
    <filter height="1.2" id="solid" width="1.2" x="-0.1" y="-0.1">
     <feFlood flood-color="#ccff90" result="bg"/>
     <feMerge>
      <feMergeNode in="bg"/>
      <feMergeNode in="SourceGraphic"/>
     </feMerge>
    </filter>
   </defs>
   <text filter="url(#solid)" font-family="Microsoft YaHei" font-size="10.00" text-anchor="middle" x="796.5" y="-355.0">
    单调栈
   </text>
  </g>
  <g class="key">
   <defs>
    <filter height="1.2" id="solid" width="1.2" x="-0.1" y="-0.1">
     <feFlood flood-color="#ccff90" result="bg"/>
     <feMerge>
      <feMergeNode in="bg"/>
      <feMergeNode in="SourceGraphic"/>
     </feMerge>
    </filter>
   </defs>
   <text filter="url(#solid)" font-family="Microsoft YaHei" font-size="10.00" text-anchor="middle" x="796.5" y="-283.0">
    插入排序
   </text>
  </g>
  <g class="key">
   <defs>
    <filter height="1.2" id="solid" width="1.2" x="-0.1" y="-0.1">
     <feFlood flood-color="#ccff90" result="bg"/>
     <feMerge>
      <feMergeNode in="bg"/>
      <feMergeNode in="SourceGraphic"/>
     </feMerge>
    </filter>
   </defs>
   <text filter="url(#solid)" font-family="Microsoft YaHei" font-size="10.00" text-anchor="middle" x="796.5" y="-211.0">
    归并排序
   </text>
  </g>
  <g class="key">
   <defs>
    <filter height="1.2" id="solid" width="1.2" x="-0.1" y="-0.1">
     <feFlood flood-color="#ccff90" result="bg"/>
     <feMerge>
      <feMergeNode in="bg"/>
      <feMergeNode in="SourceGraphic"/>
     </feMerge>
    </filter>
   </defs>
   <text filter="url(#solid)" font-family="Microsoft YaHei" font-size="10.00" text-anchor="middle" x="796.5" y="-139.0">
    map映射
   </text>
  </g>
 </g>
</svg>