<?xml version="1.0" encoding="utf-8"?>
<!DOCTYPE svg PUBLIC "-//W3C//DTD SVG 1.1//EN" "http://www.w3.org/Graphics/SVG/1.1/DTD/svg11.dtd">
<!-- Generated by graphviz version 2.40.1 (20161225.0304)
 -->
<!-- Title: stones Pages: 1 -->
<svg height="382pt" viewBox="0.00 0.00 208.0 382.0" width="208pt" xmlns="http://www.w3.org/2000/svg" xmlns:xlink="http://www.w3.org/1999/xlink">
 <g class="graph" id="graph0" transform="scale(1 1) rotate(0) translate(4 328)">
  <title>
   stones
  </title>
  <polygon fill="#ffffff" points="-4,4 -4,-328 154,-328 154,4 -4,4" stroke="transparent"/>
  <!-- Leetcode&#45;并查集 -->
  <g class="node" id="node1">
   <title>
    Leetcode-并查集
   </title>
   <g id="a_node1">
    <a target="_parent" xlink:href="https://leetcode-cn.com/tag/union-find" xlink:title="Leetcode-并查集(3)">
     <polygon fill="#ff4500" points="150,-324 0,-324 0,-288 150,-288 150,-324" stroke="#d3d3d3"/>
     <text fill="#ffffff" font-family="Microsoft YaHei" font-size="14.00" text-anchor="middle" x="75" y="-302.3">
      Leetcode-并查集(3)
     </text>
    </a>
   </g>
  </g>
  <!-- 并查集与搜索 -->
  <g class="node" id="node2">
   <title>
    并查集与搜索
   </title>
   <polygon fill="#778899" points="127.5,-252 22.5,-252 22.5,-216 127.5,-216 127.5,-252" stroke="#d3d3d3"/>
   <text fill="#ffffff" font-family="Microsoft YaHei" font-size="12.00" text-anchor="middle" x="75" y="-230.9">
    并查集与搜索(3)
   </text>
  </g>
  <!-- Leetcode&#45;并查集&#45;&gt;并查集与搜索 -->
  <g class="edge" id="edge1">
   <title>
    Leetcode-并查集-&gt;并查集与搜索
   </title>
   <path d="M75,-287.8314C75,-280.131 75,-270.9743 75,-262.4166" fill="none" stroke="#d3d3d3"/>
   <polygon fill="#d3d3d3" points="78.5001,-262.4132 75,-252.4133 71.5001,-262.4133 78.5001,-262.4132" stroke="#d3d3d3"/>
  </g>
  <!-- 130 -->
  <g class="node" id="node3">
   <title>
    130
   </title>
   <g id="a_node3">
    <a target="_parent" xlink:href="https://leetcode-cn.com/problems/surrounded-regions" xlink:title="130. 被围绕的区域">
     <polygon fill="none" points="134.5,-180 15.5,-180 15.5,-144 134.5,-144 134.5,-180" stroke="#ffa500"/>
     <text fill="#000000" font-family="Microsoft YaHei" font-size="12.00" text-anchor="middle" x="75" y="-158.9">
      130. 被围绕的区域
     </text>
    </a>
   </g>
  </g>
  <!-- 并查集与搜索&#45;&gt;130 -->
  <g class="edge" id="edge2">
   <title>
    并查集与搜索-&gt;130
   </title>
   <path d="M75,-215.8314C75,-208.131 75,-198.9743 75,-190.4166" fill="none" stroke="#d3d3d3"/>
   <polygon fill="#d3d3d3" points="78.5001,-190.4132 75,-180.4133 71.5001,-190.4133 78.5001,-190.4132" stroke="#d3d3d3"/>
  </g>
  <!-- 200 -->
  <g class="node" id="node4">
   <title>
    200
   </title>
   <g id="a_node4">
    <a target="_parent" xlink:href="https://leetcode-cn.com/problems/number-of-islands" xlink:title="200. 岛屿数量">
     <polygon fill="none" points="122.5,-108 27.5,-108 27.5,-72 122.5,-72 122.5,-108" stroke="#ffa500"/>
     <text fill="#000000" font-family="Microsoft YaHei" font-size="12.00" text-anchor="middle" x="75" y="-86.9">
      200. 岛屿数量
     </text>
    </a>
   </g>
  </g>
  <!-- 130&#45;&gt;200 -->
  <g class="edge" id="edge3">
   <title>
    130-&gt;200
   </title>
   <path d="M75,-143.8314C75,-136.131 75,-126.9743 75,-118.4166" fill="none" stroke="#d3d3d3"/>
   <polygon fill="#d3d3d3" points="78.5001,-118.4132 75,-108.4133 71.5001,-118.4133 78.5001,-118.4132" stroke="#d3d3d3"/>
  </g>
  <!-- 547 -->
  <g class="node" id="node5">
   <title>
    547
   </title>
   <g id="a_node5">
    <a target="_parent" xlink:href="https://leetcode-cn.com/problems/number-of-provinces" xlink:title="547. 省份数量">
     <polygon fill="none" points="122.5,-36 27.5,-36 27.5,0 122.5,0 122.5,-36" stroke="#ffa500"/>
     <text fill="#000000" font-family="Microsoft YaHei" font-size="12.00" text-anchor="middle" x="75" y="-14.9">
      547. 省份数量
     </text>
    </a>
   </g>
  </g>
  <!-- 200&#45;&gt;547 -->
  <g class="edge" id="edge4">
   <title>
    200-&gt;547
   </title>
   <path d="M75,-71.8314C75,-64.131 75,-54.9743 75,-46.4166" fill="none" stroke="#d3d3d3"/>
   <polygon fill="#d3d3d3" points="78.5001,-46.4132 75,-36.4133 71.5001,-46.4133 78.5001,-46.4132" stroke="#d3d3d3"/>
  </g>
  <g class="key">
   <defs>
    <filter height="1.2" id="solid" width="1.2" x="-0.1" y="-0.1">
     <feFlood flood-color="#ccff90" result="bg"/>
     <feMerge>
      <feMergeNode in="bg"/>
      <feMergeNode in="SourceGraphic"/>
     </feMerge>
    </filter>
   </defs>
   <text filter="url(#solid)" font-family="Microsoft YaHei" font-size="10.00" text-anchor="middle" x="75.0" y="5.0">
    基本题
   </text>
  </g>
 </g>
</svg>