<?xml version="1.0" encoding="utf-8"?>
<!DOCTYPE svg PUBLIC "-//W3C//DTD SVG 1.1//EN" "http://www.w3.org/Graphics/SVG/1.1/DTD/svg11.dtd">
<!-- Generated by graphviz version 2.47.3 (20210619.1520)
 -->
<!-- Title: stones Pages: 1 -->
<svg height="814pt" viewBox="0.00 0.00 930.5 814.0" width="931pt" xmlns="http://www.w3.org/2000/svg" xmlns:xlink="http://www.w3.org/1999/xlink">
 <g class="graph" id="graph0" transform="scale(1 1) rotate(0) translate(4 760)">
  <title>
   stones
  </title>
  <polygon fill="white" points="-4,4 -4,-760 876.5,-760 876.5,4 -4,4" stroke="transparent"/>
  <!-- Leetcode&#45;链表 -->
  <g class="node" id="node1">
   <title>
    Leetcode-链表
   </title>
   <g id="a_node1">
    <a target="_parent" xlink:href="https://leetcode-cn.com/tag/linked-list" xlink:title="Leetcode-链表(36)">
     <polygon fill="orangered" points="498.5,-756 366.5,-756 366.5,-720 498.5,-720 498.5,-756" stroke="lightgrey"/>
     <text fill="white" font-family="Microsoft YaHei" font-size="14.00" text-anchor="middle" x="432.5" y="-734.3">
      Leetcode-链表(36)
     </text>
    </a>
   </g>
  </g>
  <!-- 链表第一题 -->
  <g class="node" id="node2">
   <title>
    链表第一题
   </title>
   <polygon fill="lightslategray" points="136,-684 45,-684 45,-648 136,-648 136,-684" stroke="lightgrey"/>
   <text fill="white" font-family="Microsoft YaHei" font-size="12.00" text-anchor="middle" x="90.5" y="-662.9">
    链表第一题(1)
   </text>
  </g>
  <!-- Leetcode&#45;链表&#45;&gt;链表第一题 -->
  <g class="edge" id="edge1">
   <title>
    Leetcode-链表-&gt;链表第一题
   </title>
   <path d="M366.43,-726.75C308.39,-717.27 221.86,-701.95 147.5,-684 147.04,-683.89 146.57,-683.77 146.1,-683.66" fill="none" stroke="lightgrey"/>
   <polygon fill="lightgrey" points="146.68,-680.19 136.12,-681.07 144.92,-686.97 146.68,-680.19" stroke="lightgrey"/>
  </g>
  <!-- 反转链表 -->
  <g class="node" id="node4">
   <title>
    反转链表
   </title>
   <polygon fill="lightslategray" points="236,-684 157,-684 157,-648 236,-648 236,-684" stroke="lightgrey"/>
   <text fill="white" font-family="Microsoft YaHei" font-size="12.00" text-anchor="middle" x="196.5" y="-662.9">
    反转链表(6)
   </text>
  </g>
  <!-- Leetcode&#45;链表&#45;&gt;反转链表 -->
  <g class="edge" id="edge3">
   <title>
    Leetcode-链表-&gt;反转链表
   </title>
   <path d="M375.07,-719.97C335.49,-708.23 283.44,-692.79 245.76,-681.61" fill="none" stroke="lightgrey"/>
   <polygon fill="lightgrey" points="246.6,-678.21 236.02,-678.72 244.61,-684.92 246.6,-678.21" stroke="lightgrey"/>
  </g>
  <!-- 删除链表 -->
  <g class="node" id="node11">
   <title>
    删除链表
   </title>
   <polygon fill="lightslategray" points="357,-684 278,-684 278,-648 357,-648 357,-684" stroke="lightgrey"/>
   <text fill="white" font-family="Microsoft YaHei" font-size="12.00" text-anchor="middle" x="317.5" y="-662.9">
    删除链表(5)
   </text>
  </g>
  <!-- Leetcode&#45;链表&#45;&gt;删除链表 -->
  <g class="edge" id="edge10">
   <title>
    Leetcode-链表-&gt;删除链表
   </title>
   <path d="M404.37,-719.88C389.33,-710.72 370.63,-699.34 354.44,-689.48" fill="none" stroke="lightgrey"/>
   <polygon fill="lightgrey" points="356.1,-686.4 345.74,-684.19 352.46,-692.38 356.1,-686.4" stroke="lightgrey"/>
  </g>
  <!-- 构建新链表 -->
  <g class="node" id="node17">
   <title>
    构建新链表
   </title>
   <polygon fill="lightslategray" points="478,-684 387,-684 387,-648 478,-648 478,-684" stroke="lightgrey"/>
   <text fill="white" font-family="Microsoft YaHei" font-size="12.00" text-anchor="middle" x="432.5" y="-662.9">
    构建新链表(9)
   </text>
  </g>
  <!-- Leetcode&#45;链表&#45;&gt;构建新链表 -->
  <g class="edge" id="edge16">
   <title>
    Leetcode-链表-&gt;构建新链表
   </title>
   <path d="M432.5,-719.7C432.5,-711.98 432.5,-702.71 432.5,-694.11" fill="none" stroke="lightgrey"/>
   <polygon fill="lightgrey" points="436,-694.1 432.5,-684.1 429,-694.1 436,-694.1" stroke="lightgrey"/>
  </g>
  <!-- 快慢指针 -->
  <g class="node" id="node27">
   <title>
    快慢指针
   </title>
   <polygon fill="lightslategray" points="575,-684 496,-684 496,-648 575,-648 575,-684" stroke="lightgrey"/>
   <text fill="white" font-family="Microsoft YaHei" font-size="12.00" text-anchor="middle" x="535.5" y="-662.9">
    快慢指针(8)
   </text>
  </g>
  <!-- Leetcode&#45;链表&#45;&gt;快慢指针 -->
  <g class="edge" id="edge26">
   <title>
    Leetcode-链表-&gt;快慢指针
   </title>
   <path d="M457.7,-719.88C470.91,-710.89 487.29,-699.76 501.61,-690.03" fill="none" stroke="lightgrey"/>
   <polygon fill="lightgrey" points="503.9,-692.71 510.21,-684.19 499.97,-686.92 503.9,-692.71" stroke="lightgrey"/>
  </g>
  <!-- 链表和其他算法 -->
  <g class="node" id="node36">
   <title>
    链表和其他算法
   </title>
   <polygon fill="lightslategray" points="708,-684 593,-684 593,-648 708,-648 708,-684" stroke="lightgrey"/>
   <text fill="white" font-family="Microsoft YaHei" font-size="12.00" text-anchor="middle" x="650.5" y="-662.9">
    链表和其他算法(7)
   </text>
  </g>
  <!-- Leetcode&#45;链表&#45;&gt;链表和其他算法 -->
  <g class="edge" id="edge35">
   <title>
    Leetcode-链表-&gt;链表和其他算法
   </title>
   <path d="M485.55,-719.97C516.27,-710.1 555.14,-697.62 587.42,-687.25" fill="none" stroke="lightgrey"/>
   <polygon fill="lightgrey" points="588.76,-690.5 597.21,-684.11 586.62,-683.84 588.76,-690.5" stroke="lightgrey"/>
  </g>
  <!-- 设计题 -->
  <g class="node" id="node44">
   <title>
    设计题
   </title>
   <polygon fill="lightslategray" points="793,-684 726,-684 726,-648 793,-648 793,-684" stroke="lightgrey"/>
   <text fill="white" font-family="Microsoft YaHei" font-size="12.00" text-anchor="middle" x="759.5" y="-662.9">
    设计题(0)
   </text>
  </g>
  <!-- Leetcode&#45;链表&#45;&gt;设计题 -->
  <g class="edge" id="edge43">
   <title>
    Leetcode-链表-&gt;设计题
   </title>
   <path d="M498.76,-728.32C554.59,-720.16 636.54,-706.25 716.21,-683.77" fill="none" stroke="lightgrey"/>
   <polygon fill="lightgrey" points="717.26,-687.11 725.91,-680.99 715.33,-680.38 717.26,-687.11" stroke="lightgrey"/>
  </g>
  <!-- 707 -->
  <g class="node" id="node3">
   <title>
    707
   </title>
   <g id="a_node3">
    <a target="_parent" xlink:href="https://leetcode-cn.com/problems/design-linked-list" xlink:title="707. 设计链表">
     <polygon fill="none" points="115,-612 24,-612 24,-576 115,-576 115,-612" stroke="orange"/>
     <text font-family="Microsoft YaHei" font-size="12.00" text-anchor="middle" x="69.5" y="-590.9">
      707. 设计链表
     </text>
    </a>
   </g>
  </g>
  <!-- 链表第一题&#45;&gt;707 -->
  <g class="edge" id="edge2">
   <title>
    链表第一题-&gt;707
   </title>
   <path d="M85.31,-647.7C82.97,-639.9 80.15,-630.51 77.55,-621.83" fill="none" stroke="lightgrey"/>
   <polygon fill="lightgrey" points="80.86,-620.68 74.63,-612.1 74.15,-622.69 80.86,-620.68" stroke="lightgrey"/>
  </g>
  <!-- 234 -->
  <g class="node" id="node5">
   <title>
    234
   </title>
   <g id="a_node5">
    <a target="_parent" xlink:href="https://leetcode-cn.com/problems/palindrome-linked-list" xlink:title="234. 回文链表">
     <polygon fill="none" points="224,-612 133,-612 133,-576 224,-576 224,-612" stroke="greenyellow"/>
     <text font-family="Microsoft YaHei" font-size="12.00" text-anchor="middle" x="178.5" y="-590.9">
      234. 回文链表
     </text>
    </a>
   </g>
  </g>
  <!-- 反转链表&#45;&gt;234 -->
  <g class="edge" id="edge4">
   <title>
    反转链表-&gt;234
   </title>
   <path d="M192.05,-647.7C190.05,-639.9 187.63,-630.51 185.4,-621.83" fill="none" stroke="lightgrey"/>
   <polygon fill="lightgrey" points="188.78,-620.92 182.9,-612.1 182,-622.66 188.78,-620.92" stroke="lightgrey"/>
  </g>
  <!-- 206 -->
  <g class="node" id="node6">
   <title>
    206
   </title>
   <g id="a_node6">
    <a target="_parent" xlink:href="https://leetcode-cn.com/problems/reverse-linked-list" xlink:title="206. 反转链表">
     <polygon fill="none" points="180,-540 89,-540 89,-504 180,-504 180,-540" stroke="greenyellow"/>
     <text font-family="Microsoft YaHei" font-size="12.00" text-anchor="middle" x="134.5" y="-518.9">
      206. 反转链表
     </text>
    </a>
   </g>
  </g>
  <!-- 234&#45;&gt;206 -->
  <g class="edge" id="edge5">
   <title>
    234-&gt;206
   </title>
   <path d="M167.62,-575.7C162.51,-567.56 156.3,-557.69 150.66,-548.7" fill="none" stroke="lightgrey"/>
   <polygon fill="lightgrey" points="153.54,-546.71 145.25,-540.1 147.61,-550.43 153.54,-546.71" stroke="lightgrey"/>
  </g>
  <!-- 24 -->
  <g class="node" id="node7">
   <title>
    24
   </title>
   <g id="a_node7">
    <a target="_parent" xlink:href="https://leetcode-cn.com/problems/swap-nodes-in-pairs" xlink:title="24. 两两交换链表中的节点">
     <polygon fill="none" points="157,-468 0,-468 0,-432 157,-432 157,-468" stroke="orange"/>
     <text font-family="Microsoft YaHei" font-size="12.00" text-anchor="middle" x="78.5" y="-446.9">
      24. 两两交换链表中的节点
     </text>
    </a>
   </g>
  </g>
  <!-- 206&#45;&gt;24 -->
  <g class="edge" id="edge6">
   <title>
    206-&gt;24
   </title>
   <path d="M120.66,-503.7C114.01,-495.39 105.92,-485.28 98.61,-476.14" fill="none" stroke="lightgrey"/>
   <polygon fill="lightgrey" points="101.16,-473.73 92.18,-468.1 95.7,-478.1 101.16,-473.73" stroke="lightgrey"/>
  </g>
  <!-- 25 -->
  <g class="node" id="node8">
   <title>
    25
   </title>
   <g id="a_node8">
    <a target="_parent" xlink:href="https://leetcode-cn.com/problems/reverse-nodes-in-k-group" xlink:title="25. K 个一组翻转链表">
     <polygon fill="none" points="144.5,-396 12.5,-396 12.5,-360 144.5,-360 144.5,-396" stroke="red"/>
     <text font-family="Microsoft YaHei" font-size="12.00" text-anchor="middle" x="78.5" y="-374.9">
      25. K 个一组翻转链表
     </text>
    </a>
   </g>
  </g>
  <!-- 24&#45;&gt;25 -->
  <g class="edge" id="edge7">
   <title>
    24-&gt;25
   </title>
   <path d="M78.5,-431.7C78.5,-423.98 78.5,-414.71 78.5,-406.11" fill="none" stroke="lightgrey"/>
   <polygon fill="lightgrey" points="82,-406.1 78.5,-396.1 75,-406.1 82,-406.1" stroke="lightgrey"/>
  </g>
  <!-- 92 -->
  <g class="node" id="node9">
   <title>
    92
   </title>
   <g id="a_node9">
    <a target="_parent" xlink:href="https://leetcode-cn.com/problems/reverse-linked-list-ii" xlink:title="92. 反转链表 II">
     <polygon fill="none" points="126,-324 31,-324 31,-288 126,-288 126,-324" stroke="orange"/>
     <text font-family="Microsoft YaHei" font-size="12.00" text-anchor="middle" x="78.5" y="-302.9">
      92. 反转链表 II
     </text>
    </a>
   </g>
  </g>
  <!-- 25&#45;&gt;92 -->
  <g class="edge" id="edge8">
   <title>
    25-&gt;92
   </title>
   <path d="M78.5,-359.7C78.5,-351.98 78.5,-342.71 78.5,-334.11" fill="none" stroke="lightgrey"/>
   <polygon fill="lightgrey" points="82,-334.1 78.5,-324.1 75,-334.1 82,-334.1" stroke="lightgrey"/>
  </g>
  <!-- 143 -->
  <g class="node" id="node10">
   <title>
    143
   </title>
   <g id="a_node10">
    <a target="_parent" xlink:href="https://leetcode-cn.com/problems/reorder-list" xlink:title="143. 重排链表">
     <polygon fill="none" points="124,-252 33,-252 33,-216 124,-216 124,-252" stroke="orange"/>
     <text font-family="Microsoft YaHei" font-size="12.00" text-anchor="middle" x="78.5" y="-230.9">
      143. 重排链表
     </text>
    </a>
   </g>
  </g>
  <!-- 92&#45;&gt;143 -->
  <g class="edge" id="edge9">
   <title>
    92-&gt;143
   </title>
   <path d="M78.5,-287.7C78.5,-279.98 78.5,-270.71 78.5,-262.11" fill="none" stroke="lightgrey"/>
   <polygon fill="lightgrey" points="82,-262.1 78.5,-252.1 75,-262.1 82,-262.1" stroke="lightgrey"/>
  </g>
  <!-- 237 -->
  <g class="node" id="node12">
   <title>
    237
   </title>
   <g id="a_node12">
    <a target="_parent" xlink:href="https://leetcode-cn.com/problems/delete-node-in-a-linked-list" xlink:title="237. 删除链表中的节点">
     <polygon fill="none" points="381,-612 242,-612 242,-576 381,-576 381,-612" stroke="greenyellow"/>
     <text font-family="Microsoft YaHei" font-size="12.00" text-anchor="middle" x="311.5" y="-590.9">
      237. 删除链表中的节点
     </text>
    </a>
   </g>
  </g>
  <!-- 删除链表&#45;&gt;237 -->
  <g class="edge" id="edge11">
   <title>
    删除链表-&gt;237
   </title>
   <path d="M316.02,-647.7C315.36,-639.98 314.56,-630.71 313.82,-622.11" fill="none" stroke="lightgrey"/>
   <polygon fill="lightgrey" points="317.31,-621.77 312.97,-612.1 310.33,-622.37 317.31,-621.77" stroke="lightgrey"/>
  </g>
  <!-- 203 -->
  <g class="node" id="node13">
   <title>
    203
   </title>
   <g id="a_node13">
    <a target="_parent" xlink:href="https://leetcode-cn.com/problems/remove-linked-list-elements" xlink:title="203. 移除链表元素">
     <polygon fill="none" points="346,-540 231,-540 231,-504 346,-504 346,-540" stroke="greenyellow"/>
     <text font-family="Microsoft YaHei" font-size="12.00" text-anchor="middle" x="288.5" y="-518.9">
      203. 移除链表元素
     </text>
    </a>
   </g>
  </g>
  <!-- 237&#45;&gt;203 -->
  <g class="edge" id="edge12">
   <title>
    237-&gt;203
   </title>
   <path d="M305.81,-575.7C303.25,-567.9 300.17,-558.51 297.32,-549.83" fill="none" stroke="lightgrey"/>
   <polygon fill="lightgrey" points="300.57,-548.51 294.12,-540.1 293.92,-550.7 300.57,-548.51" stroke="lightgrey"/>
  </g>
  <!-- 83 -->
  <g class="node" id="node14">
   <title>
    83
   </title>
   <g id="a_node14">
    <a target="_parent" xlink:href="https://leetcode-cn.com/problems/remove-duplicates-from-sorted-list" xlink:title="83. 删除排序链表中的重复元素">
     <polygon fill="none" points="356,-468 175,-468 175,-432 356,-432 356,-468" stroke="greenyellow"/>
     <text font-family="Microsoft YaHei" font-size="12.00" text-anchor="middle" x="265.5" y="-446.9">
      83. 删除排序链表中的重复元素
     </text>
    </a>
   </g>
  </g>
  <!-- 203&#45;&gt;83 -->
  <g class="edge" id="edge13">
   <title>
    203-&gt;83
   </title>
   <path d="M282.81,-503.7C280.25,-495.9 277.17,-486.51 274.32,-477.83" fill="none" stroke="lightgrey"/>
   <polygon fill="lightgrey" points="277.57,-476.51 271.12,-468.1 270.92,-478.7 277.57,-476.51" stroke="lightgrey"/>
  </g>
  <!-- 82 -->
  <g class="node" id="node15">
   <title>
    82
   </title>
   <g id="a_node15">
    <a target="_parent" xlink:href="https://leetcode-cn.com/problems/remove-duplicates-from-sorted-list-ii" xlink:title="82. 删除排序链表中的重复元素 II">
     <polygon fill="none" points="361,-396 170,-396 170,-360 361,-360 361,-396" stroke="orange"/>
     <text font-family="Microsoft YaHei" font-size="12.00" text-anchor="middle" x="265.5" y="-374.9">
      82. 删除排序链表中的重复元素 II
     </text>
    </a>
   </g>
   <g transform="translate(353.0, -402.0) scale(0.3)">
    <circle cx="24" cy="24" fill="#4caf50" r="21"/>
    <polygon fill="#ccff90" points="34.6,14.6 21,28.2 15.4,22.6 12.6,25.4 21,33.8 37.4,17.4"/>
   </g>
  </g>
  <!-- 83&#45;&gt;82 -->
  <g class="edge" id="edge14">
   <title>
    83-&gt;82
   </title>
   <path d="M265.5,-431.7C265.5,-423.98 265.5,-414.71 265.5,-406.11" fill="none" stroke="lightgrey"/>
   <polygon fill="lightgrey" points="269,-406.1 265.5,-396.1 262,-406.1 269,-406.1" stroke="lightgrey"/>
  </g>
  <!-- 1171 -->
  <g class="node" id="node16">
   <title>
    1171
   </title>
   <g id="a_node16">
    <a target="_parent" xlink:href="https://leetcode-cn.com/problems/remove-zero-sum-consecutive-nodes-from-linked-list" xlink:title="1171. 从链表中删去总和值为零的连续节点">
     <polygon fill="none" points="386,-324 145,-324 145,-288 386,-288 386,-324" stroke="orange"/>
     <text font-family="Microsoft YaHei" font-size="12.00" text-anchor="middle" x="265.5" y="-302.9">
      1171. 从链表中删去总和值为零的连续节点
     </text>
    </a>
   </g>
  </g>
  <!-- 82&#45;&gt;1171 -->
  <g class="edge" id="edge15">
   <title>
    82-&gt;1171
   </title>
   <path d="M265.5,-359.7C265.5,-351.98 265.5,-342.71 265.5,-334.11" fill="none" stroke="lightgrey"/>
   <polygon fill="lightgrey" points="269,-334.1 265.5,-324.1 262,-334.1 269,-334.1" stroke="lightgrey"/>
  </g>
  <!-- 2 -->
  <g class="node" id="node18">
   <title>
    2
   </title>
   <g id="a_node18">
    <a target="_parent" xlink:href="https://leetcode-cn.com/problems/add-two-numbers" xlink:title="2. 两数相加">
     <polygon fill="none" points="477.5,-612 399.5,-612 399.5,-576 477.5,-576 477.5,-612" stroke="orange"/>
     <text font-family="Microsoft YaHei" font-size="12.00" text-anchor="middle" x="438.5" y="-590.9">
      2. 两数相加
     </text>
    </a>
   </g>
   <g transform="translate(469.5, -618.0) scale(0.3)">
    <circle cx="24" cy="24" fill="#4caf50" r="21"/>
    <polygon fill="#ccff90" points="34.6,14.6 21,28.2 15.4,22.6 12.6,25.4 21,33.8 37.4,17.4"/>
   </g>
  </g>
  <!-- 构建新链表&#45;&gt;2 -->
  <g class="edge" id="edge17">
   <title>
    构建新链表-&gt;2
   </title>
   <path d="M433.98,-647.7C434.64,-639.98 435.44,-630.71 436.18,-622.11" fill="none" stroke="lightgrey"/>
   <polygon fill="lightgrey" points="439.67,-622.37 437.03,-612.1 432.69,-621.77 439.67,-622.37" stroke="lightgrey"/>
  </g>
  <!-- 445 -->
  <g class="node" id="node19">
   <title>
    445
   </title>
   <g id="a_node19">
    <a target="_parent" xlink:href="https://leetcode-cn.com/problems/add-two-numbers-ii" xlink:title="445. 两数相加 II">
     <polygon fill="none" points="489,-540 388,-540 388,-504 489,-504 489,-540" stroke="orange"/>
     <text font-family="Microsoft YaHei" font-size="12.00" text-anchor="middle" x="438.5" y="-518.9">
      445. 两数相加 II
     </text>
    </a>
   </g>
  </g>
  <!-- 2&#45;&gt;445 -->
  <g class="edge" id="edge18">
   <title>
    2-&gt;445
   </title>
   <path d="M438.5,-575.7C438.5,-567.98 438.5,-558.71 438.5,-550.11" fill="none" stroke="lightgrey"/>
   <polygon fill="lightgrey" points="442,-550.1 438.5,-540.1 435,-550.1 442,-550.1" stroke="lightgrey"/>
  </g>
  <!-- 430 -->
  <g class="node" id="node20">
   <title>
    430
   </title>
   <g id="a_node20">
    <a target="_parent" xlink:href="https://leetcode-cn.com/problems/flatten-a-multilevel-doubly-linked-list" xlink:title="430. 扁平化多级双向链表">
     <polygon fill="none" points="525,-468 374,-468 374,-432 525,-432 525,-468" stroke="orange"/>
     <text font-family="Microsoft YaHei" font-size="12.00" text-anchor="middle" x="449.5" y="-446.9">
      430. 扁平化多级双向链表
     </text>
    </a>
   </g>
   <g transform="translate(517.0, -474.0) scale(0.3)">
    <circle cx="24" cy="24" fill="#4caf50" r="21"/>
    <polygon fill="#ccff90" points="34.6,14.6 21,28.2 15.4,22.6 12.6,25.4 21,33.8 37.4,17.4"/>
   </g>
  </g>
  <!-- 445&#45;&gt;430 -->
  <g class="edge" id="edge19">
   <title>
    445-&gt;430
   </title>
   <path d="M441.22,-503.7C442.43,-495.98 443.89,-486.71 445.24,-478.11" fill="none" stroke="lightgrey"/>
   <polygon fill="lightgrey" points="448.72,-478.53 446.81,-468.1 441.8,-477.44 448.72,-478.53" stroke="lightgrey"/>
  </g>
  <!-- 1669 -->
  <g class="node" id="node21">
   <title>
    1669
   </title>
   <g id="a_node21">
    <a target="_parent" xlink:href="https://leetcode-cn.com/problems/merge-in-between-linked-lists" xlink:title="1669. 合并两个链表">
     <polygon fill="none" points="508.5,-396 386.5,-396 386.5,-360 508.5,-360 508.5,-396" stroke="orange"/>
     <text font-family="Microsoft YaHei" font-size="12.00" text-anchor="middle" x="447.5" y="-374.9">
      1669. 合并两个链表
     </text>
    </a>
   </g>
  </g>
  <!-- 430&#45;&gt;1669 -->
  <g class="edge" id="edge20">
   <title>
    430-&gt;1669
   </title>
   <path d="M449.01,-431.7C448.79,-423.98 448.52,-414.71 448.27,-406.11" fill="none" stroke="lightgrey"/>
   <polygon fill="lightgrey" points="451.77,-406 447.99,-396.1 444.78,-406.2 451.77,-406" stroke="lightgrey"/>
  </g>
  <!-- 86 -->
  <g class="node" id="node22">
   <title>
    86
   </title>
   <g id="a_node22">
    <a target="_parent" xlink:href="https://leetcode-cn.com/problems/partition-list" xlink:title="86. 分隔链表">
     <polygon fill="none" points="490,-324 405,-324 405,-288 490,-288 490,-324" stroke="orange"/>
     <text font-family="Microsoft YaHei" font-size="12.00" text-anchor="middle" x="447.5" y="-302.9">
      86. 分隔链表
     </text>
    </a>
   </g>
  </g>
  <!-- 1669&#45;&gt;86 -->
  <g class="edge" id="edge21">
   <title>
    1669-&gt;86
   </title>
   <path d="M447.5,-359.7C447.5,-351.98 447.5,-342.71 447.5,-334.11" fill="none" stroke="lightgrey"/>
   <polygon fill="lightgrey" points="451,-334.1 447.5,-324.1 444,-334.1 451,-334.1" stroke="lightgrey"/>
  </g>
  <!-- 328 -->
  <g class="node" id="node23">
   <title>
    328
   </title>
   <g id="a_node23">
    <a target="_parent" xlink:href="https://leetcode-cn.com/problems/odd-even-linked-list" xlink:title="328. 奇偶链表">
     <polygon fill="none" points="493,-252 402,-252 402,-216 493,-216 493,-252" stroke="orange"/>
     <text font-family="Microsoft YaHei" font-size="12.00" text-anchor="middle" x="447.5" y="-230.9">
      328. 奇偶链表
     </text>
    </a>
   </g>
  </g>
  <!-- 86&#45;&gt;328 -->
  <g class="edge" id="edge22">
   <title>
    86-&gt;328
   </title>
   <path d="M447.5,-287.7C447.5,-279.98 447.5,-270.71 447.5,-262.11" fill="none" stroke="lightgrey"/>
   <polygon fill="lightgrey" points="451,-262.1 447.5,-252.1 444,-262.1 451,-262.1" stroke="lightgrey"/>
  </g>
  <!-- 725 -->
  <g class="node" id="node24">
   <title>
    725
   </title>
   <g id="a_node24">
    <a target="_parent" xlink:href="https://leetcode-cn.com/problems/split-linked-list-in-parts" xlink:title="725. 分隔链表">
     <polygon fill="none" points="493,-180 402,-180 402,-144 493,-144 493,-180" stroke="orange"/>
     <text font-family="Microsoft YaHei" font-size="12.00" text-anchor="middle" x="447.5" y="-158.9">
      725. 分隔链表
     </text>
    </a>
   </g>
   <g transform="translate(485.0, -186.0) scale(0.3)">
    <circle cx="24" cy="24" fill="#4caf50" r="21"/>
    <polygon fill="#ccff90" points="34.6,14.6 21,28.2 15.4,22.6 12.6,25.4 21,33.8 37.4,17.4"/>
   </g>
  </g>
  <!-- 328&#45;&gt;725 -->
  <g class="edge" id="edge23">
   <title>
    328-&gt;725
   </title>
   <path d="M447.5,-215.7C447.5,-207.98 447.5,-198.71 447.5,-190.11" fill="none" stroke="lightgrey"/>
   <polygon fill="lightgrey" points="451,-190.1 447.5,-180.1 444,-190.1 451,-190.1" stroke="lightgrey"/>
  </g>
  <!-- 21 -->
  <g class="node" id="node25">
   <title>
    21
   </title>
   <g id="a_node25">
    <a target="_parent" xlink:href="https://leetcode-cn.com/problems/merge-two-sorted-lists" xlink:title="21. 合并两个有序链表">
     <polygon fill="none" points="514,-108 381,-108 381,-72 514,-72 514,-108" stroke="greenyellow"/>
     <text font-family="Microsoft YaHei" font-size="12.00" text-anchor="middle" x="447.5" y="-86.9">
      21. 合并两个有序链表
     </text>
    </a>
   </g>
  </g>
  <!-- 725&#45;&gt;21 -->
  <g class="edge" id="edge24">
   <title>
    725-&gt;21
   </title>
   <path d="M447.5,-143.7C447.5,-135.98 447.5,-126.71 447.5,-118.11" fill="none" stroke="lightgrey"/>
   <polygon fill="lightgrey" points="451,-118.1 447.5,-108.1 444,-118.1 451,-118.1" stroke="lightgrey"/>
  </g>
  <!-- 23 -->
  <g class="node" id="node26">
   <title>
    23
   </title>
   <g id="a_node26">
    <a target="_parent" xlink:href="https://leetcode-cn.com/problems/merge-k-sorted-lists" xlink:title="23. 合并K个升序链表">
     <polygon fill="none" points="512,-36 383,-36 383,0 512,0 512,-36" stroke="red"/>
     <text font-family="Microsoft YaHei" font-size="12.00" text-anchor="middle" x="447.5" y="-14.9">
      23. 合并K个升序链表
     </text>
    </a>
   </g>
  </g>
  <!-- 21&#45;&gt;23 -->
  <g class="edge" id="edge25">
   <title>
    21-&gt;23
   </title>
   <path d="M447.5,-71.7C447.5,-63.98 447.5,-54.71 447.5,-46.11" fill="none" stroke="lightgrey"/>
   <polygon fill="lightgrey" points="451,-46.1 447.5,-36.1 444,-46.1 451,-46.1" stroke="lightgrey"/>
  </g>
  <!-- 876 -->
  <g class="node" id="node28">
   <title>
    876
   </title>
   <g id="a_node28">
    <a target="_parent" xlink:href="https://leetcode-cn.com/problems/middle-of-the-linked-list" xlink:title="876. 链表的中间结点">
     <polygon fill="none" points="643,-612 516,-612 516,-576 643,-576 643,-612" stroke="greenyellow"/>
     <text font-family="Microsoft YaHei" font-size="12.00" text-anchor="middle" x="579.5" y="-590.9">
      876. 链表的中间结点
     </text>
    </a>
   </g>
  </g>
  <!-- 快慢指针&#45;&gt;876 -->
  <g class="edge" id="edge27">
   <title>
    快慢指针-&gt;876
   </title>
   <path d="M546.38,-647.7C551.49,-639.56 557.7,-629.69 563.34,-620.7" fill="none" stroke="lightgrey"/>
   <polygon fill="lightgrey" points="566.39,-622.43 568.75,-612.1 560.46,-618.71 566.39,-622.43" stroke="lightgrey"/>
  </g>
  <!-- 19 -->
  <g class="node" id="node29">
   <title>
    19
   </title>
   <g id="a_node29">
    <a target="_parent" xlink:href="https://leetcode-cn.com/problems/remove-nth-node-from-end-of-list" xlink:title="19. 删除链表的倒数第 N 个结点">
     <polygon fill="none" points="691.5,-540 507.5,-540 507.5,-504 691.5,-504 691.5,-540" stroke="orange"/>
     <text font-family="Microsoft YaHei" font-size="12.00" text-anchor="middle" x="599.5" y="-518.9">
      19. 删除链表的倒数第 N 个结点
     </text>
    </a>
   </g>
  </g>
  <!-- 876&#45;&gt;19 -->
  <g class="edge" id="edge28">
   <title>
    876-&gt;19
   </title>
   <path d="M584.44,-575.7C586.67,-567.9 589.35,-558.51 591.83,-549.83" fill="none" stroke="lightgrey"/>
   <polygon fill="lightgrey" points="595.23,-550.68 594.61,-540.1 588.5,-548.76 595.23,-550.68" stroke="lightgrey"/>
  </g>
  <!-- 61 -->
  <g class="node" id="node30">
   <title>
    61
   </title>
   <g id="a_node30">
    <a target="_parent" xlink:href="https://leetcode-cn.com/problems/rotate-list" xlink:title="61. 旋转链表">
     <polygon fill="none" points="642,-468 557,-468 557,-432 642,-432 642,-468" stroke="orange"/>
     <text font-family="Microsoft YaHei" font-size="12.00" text-anchor="middle" x="599.5" y="-446.9">
      61. 旋转链表
     </text>
    </a>
   </g>
  </g>
  <!-- 19&#45;&gt;61 -->
  <g class="edge" id="edge29">
   <title>
    19-&gt;61
   </title>
   <path d="M599.5,-503.7C599.5,-495.98 599.5,-486.71 599.5,-478.11" fill="none" stroke="lightgrey"/>
   <polygon fill="lightgrey" points="603,-478.1 599.5,-468.1 596,-478.1 603,-478.1" stroke="lightgrey"/>
  </g>
  <!-- 1721 -->
  <g class="node" id="node31">
   <title>
    1721
   </title>
   <g id="a_node31">
    <a target="_parent" xlink:href="https://leetcode-cn.com/problems/swapping-nodes-in-a-linked-list" xlink:title="1721. 交换链表中的节点">
     <polygon fill="none" points="672.5,-396 526.5,-396 526.5,-360 672.5,-360 672.5,-396" stroke="orange"/>
     <text font-family="Microsoft YaHei" font-size="12.00" text-anchor="middle" x="599.5" y="-374.9">
      1721. 交换链表中的节点
     </text>
    </a>
   </g>
  </g>
  <!-- 61&#45;&gt;1721 -->
  <g class="edge" id="edge30">
   <title>
    61-&gt;1721
   </title>
   <path d="M599.5,-431.7C599.5,-423.98 599.5,-414.71 599.5,-406.11" fill="none" stroke="lightgrey"/>
   <polygon fill="lightgrey" points="603,-406.1 599.5,-396.1 596,-406.1 603,-406.1" stroke="lightgrey"/>
  </g>
  <!-- 109 -->
  <g class="node" id="node32">
   <title>
    109
   </title>
   <g id="a_node32">
    <a target="_parent" xlink:href="https://leetcode-cn.com/problems/convert-sorted-list-to-binary-search-tree" xlink:title="109. 有序链表转换二叉搜索树">
     <polygon fill="none" points="687,-324 512,-324 512,-288 687,-288 687,-324" stroke="orange"/>
     <text font-family="Microsoft YaHei" font-size="12.00" text-anchor="middle" x="599.5" y="-302.9">
      109. 有序链表转换二叉搜索树
     </text>
    </a>
   </g>
  </g>
  <!-- 1721&#45;&gt;109 -->
  <g class="edge" id="edge31">
   <title>
    1721-&gt;109
   </title>
   <path d="M599.5,-359.7C599.5,-351.98 599.5,-342.71 599.5,-334.11" fill="none" stroke="lightgrey"/>
   <polygon fill="lightgrey" points="603,-334.1 599.5,-324.1 596,-334.1 603,-334.1" stroke="lightgrey"/>
  </g>
  <!-- 141 -->
  <g class="node" id="node33">
   <title>
    141
   </title>
   <g id="a_node33">
    <a target="_parent" xlink:href="https://leetcode-cn.com/problems/linked-list-cycle" xlink:title="141. 环形链表">
     <polygon fill="none" points="645,-252 554,-252 554,-216 645,-216 645,-252" stroke="greenyellow"/>
     <text font-family="Microsoft YaHei" font-size="12.00" text-anchor="middle" x="599.5" y="-230.9">
      141. 环形链表
     </text>
    </a>
   </g>
  </g>
  <!-- 109&#45;&gt;141 -->
  <g class="edge" id="edge32">
   <title>
    109-&gt;141
   </title>
   <path d="M599.5,-287.7C599.5,-279.98 599.5,-270.71 599.5,-262.11" fill="none" stroke="lightgrey"/>
   <polygon fill="lightgrey" points="603,-262.1 599.5,-252.1 596,-262.1 603,-262.1" stroke="lightgrey"/>
  </g>
  <!-- 160 -->
  <g class="node" id="node34">
   <title>
    160
   </title>
   <g id="a_node34">
    <a target="_parent" xlink:href="https://leetcode-cn.com/problems/intersection-of-two-linked-lists" xlink:title="160. 相交链表">
     <polygon fill="none" points="645,-180 554,-180 554,-144 645,-144 645,-180" stroke="greenyellow"/>
     <text font-family="Microsoft YaHei" font-size="12.00" text-anchor="middle" x="599.5" y="-158.9">
      160. 相交链表
     </text>
    </a>
   </g>
  </g>
  <!-- 141&#45;&gt;160 -->
  <g class="edge" id="edge33">
   <title>
    141-&gt;160
   </title>
   <path d="M599.5,-215.7C599.5,-207.98 599.5,-198.71 599.5,-190.11" fill="none" stroke="lightgrey"/>
   <polygon fill="lightgrey" points="603,-190.1 599.5,-180.1 596,-190.1 603,-190.1" stroke="lightgrey"/>
  </g>
  <!-- 142 -->
  <g class="node" id="node35">
   <title>
    142
   </title>
   <g id="a_node35">
    <a target="_parent" xlink:href="https://leetcode-cn.com/problems/linked-list-cycle-ii" xlink:title="142. 环形链表 II">
     <polygon fill="none" points="650,-108 549,-108 549,-72 650,-72 650,-108" stroke="orange"/>
     <text font-family="Microsoft YaHei" font-size="12.00" text-anchor="middle" x="599.5" y="-86.9">
      142. 环形链表 II
     </text>
    </a>
   </g>
  </g>
  <!-- 160&#45;&gt;142 -->
  <g class="edge" id="edge34">
   <title>
    160-&gt;142
   </title>
   <path d="M599.5,-143.7C599.5,-135.98 599.5,-126.71 599.5,-118.11" fill="none" stroke="lightgrey"/>
   <polygon fill="lightgrey" points="603,-118.1 599.5,-108.1 596,-118.1 603,-118.1" stroke="lightgrey"/>
  </g>
  <!-- 1290 -->
  <g class="node" id="node37">
   <title>
    1290
   </title>
   <g id="a_node37">
    <a target="_parent" xlink:href="https://leetcode-cn.com/problems/convert-binary-number-in-a-linked-list-to-integer" xlink:title="1290. 二进制链表转整数">
     <polygon fill="none" points="820.5,-612 674.5,-612 674.5,-576 820.5,-576 820.5,-612" stroke="greenyellow"/>
     <text font-family="Microsoft YaHei" font-size="12.00" text-anchor="middle" x="747.5" y="-590.9">
      1290. 二进制链表转整数
     </text>
    </a>
   </g>
  </g>
  <!-- 链表和其他算法&#45;&gt;1290 -->
  <g class="edge" id="edge36">
   <title>
    链表和其他算法-&gt;1290
   </title>
   <path d="M674.48,-647.7C686.81,-638.8 702.02,-627.82 715.35,-618.2" fill="none" stroke="lightgrey"/>
   <polygon fill="lightgrey" points="717.74,-620.79 723.8,-612.1 713.64,-615.12 717.74,-620.79" stroke="lightgrey"/>
  </g>
  <!-- 817 -->
  <g class="node" id="node38">
   <title>
    817
   </title>
   <g id="a_node38">
    <a target="_parent" xlink:href="https://leetcode-cn.com/problems/linked-list-components" xlink:title="817. 链表组件">
     <polygon fill="none" points="807,-540 716,-540 716,-504 807,-504 807,-540" stroke="orange"/>
     <text font-family="Microsoft YaHei" font-size="12.00" text-anchor="middle" x="761.5" y="-518.9">
      817. 链表组件
     </text>
    </a>
   </g>
  </g>
  <!-- 1290&#45;&gt;817 -->
  <g class="edge" id="edge37">
   <title>
    1290-&gt;817
   </title>
   <path d="M750.96,-575.7C752.5,-567.98 754.36,-558.71 756.08,-550.11" fill="none" stroke="lightgrey"/>
   <polygon fill="lightgrey" points="759.55,-550.6 758.08,-540.1 752.69,-549.22 759.55,-550.6" stroke="lightgrey"/>
  </g>
  <!-- 1367 -->
  <g class="node" id="node39">
   <title>
    1367
   </title>
   <g id="a_node39">
    <a target="_parent" xlink:href="https://leetcode-cn.com/problems/linked-list-in-binary-tree" xlink:title="1367. 二叉树中的列表">
     <polygon fill="none" points="841.5,-468 707.5,-468 707.5,-432 841.5,-432 841.5,-468" stroke="orange"/>
     <text font-family="Microsoft YaHei" font-size="12.00" text-anchor="middle" x="774.5" y="-446.9">
      1367. 二叉树中的列表
     </text>
    </a>
   </g>
  </g>
  <!-- 817&#45;&gt;1367 -->
  <g class="edge" id="edge38">
   <title>
    817-&gt;1367
   </title>
   <path d="M764.71,-503.7C766.15,-495.98 767.87,-486.71 769.46,-478.11" fill="none" stroke="lightgrey"/>
   <polygon fill="lightgrey" points="772.94,-478.58 771.32,-468.1 766.06,-477.3 772.94,-478.58" stroke="lightgrey"/>
  </g>
  <!-- 1019 -->
  <g class="node" id="node40">
   <title>
    1019
   </title>
   <g id="a_node40">
    <a target="_parent" xlink:href="https://leetcode-cn.com/problems/next-greater-node-in-linked-list" xlink:title="1019. 链表中的下一个更大节点">
     <polygon fill="none" points="872.5,-396 690.5,-396 690.5,-360 872.5,-360 872.5,-396" stroke="orange"/>
     <text font-family="Microsoft YaHei" font-size="12.00" text-anchor="middle" x="781.5" y="-374.9">
      1019. 链表中的下一个更大节点
     </text>
    </a>
   </g>
  </g>
  <!-- 1367&#45;&gt;1019 -->
  <g class="edge" id="edge39">
   <title>
    1367-&gt;1019
   </title>
   <path d="M776.23,-431.7C777,-423.98 777.93,-414.71 778.79,-406.11" fill="none" stroke="lightgrey"/>
   <polygon fill="lightgrey" points="782.28,-406.4 779.79,-396.1 775.31,-405.71 782.28,-406.4" stroke="lightgrey"/>
  </g>
  <!-- 147 -->
  <g class="node" id="node41">
   <title>
    147
   </title>
   <g id="a_node41">
    <a target="_parent" xlink:href="https://leetcode-cn.com/problems/insertion-sort-list" xlink:title="147. 对链表进行插入排序">
     <polygon fill="none" points="857,-324 706,-324 706,-288 857,-288 857,-324" stroke="orange"/>
     <text font-family="Microsoft YaHei" font-size="12.00" text-anchor="middle" x="781.5" y="-302.9">
      147. 对链表进行插入排序
     </text>
    </a>
   </g>
  </g>
  <!-- 1019&#45;&gt;147 -->
  <g class="edge" id="edge40">
   <title>
    1019-&gt;147
   </title>
   <path d="M781.5,-359.7C781.5,-351.98 781.5,-342.71 781.5,-334.11" fill="none" stroke="lightgrey"/>
   <polygon fill="lightgrey" points="785,-334.1 781.5,-324.1 778,-334.1 785,-334.1" stroke="lightgrey"/>
  </g>
  <!-- 148 -->
  <g class="node" id="node42">
   <title>
    148
   </title>
   <g id="a_node42">
    <a target="_parent" xlink:href="https://leetcode-cn.com/problems/sort-list" xlink:title="148. 排序链表">
     <polygon fill="none" points="827,-252 736,-252 736,-216 827,-216 827,-252" stroke="orange"/>
     <text font-family="Microsoft YaHei" font-size="12.00" text-anchor="middle" x="781.5" y="-230.9">
      148. 排序链表
     </text>
    </a>
   </g>
  </g>
  <!-- 147&#45;&gt;148 -->
  <g class="edge" id="edge41">
   <title>
    147-&gt;148
   </title>
   <path d="M781.5,-287.7C781.5,-279.98 781.5,-270.71 781.5,-262.11" fill="none" stroke="lightgrey"/>
   <polygon fill="lightgrey" points="785,-262.1 781.5,-252.1 778,-262.1 785,-262.1" stroke="lightgrey"/>
  </g>
  <!-- 138 -->
  <g class="node" id="node43">
   <title>
    138
   </title>
   <g id="a_node43">
    <a target="_parent" xlink:href="https://leetcode-cn.com/problems/copy-list-with-random-pointer" xlink:title="138. 复制带随机指针的链表">
     <polygon fill="none" points="863,-180 700,-180 700,-144 863,-144 863,-180" stroke="orange"/>
     <text font-family="Microsoft YaHei" font-size="12.00" text-anchor="middle" x="781.5" y="-158.9">
      138. 复制带随机指针的链表
     </text>
    </a>
   </g>
  </g>
  <!-- 148&#45;&gt;138 -->
  <g class="edge" id="edge42">
   <title>
    148-&gt;138
   </title>
   <path d="M781.5,-215.7C781.5,-207.98 781.5,-198.71 781.5,-190.11" fill="none" stroke="lightgrey"/>
   <polygon fill="lightgrey" points="785,-190.1 781.5,-180.1 778,-190.1 785,-190.1" stroke="lightgrey"/>
  </g>
  <g class="key">
   <defs>
    <filter height="1.2" id="solid" width="1.2" x="-0.1" y="-0.1">
     <feFlood flood-color="#ccff90" result="bg"/>
     <feMerge>
      <feMergeNode in="bg"/>
      <feMergeNode in="SourceGraphic"/>
     </feMerge>
    </filter>
   </defs>
   <text filter="url(#solid)" font-family="Microsoft YaHei" font-size="10.00" text-anchor="middle" x="69.5" y="-571.0">
    链表增删改查
   </text>
  </g>
  <g class="key">
   <defs>
    <filter height="1.2" id="solid" width="1.2" x="-0.1" y="-0.1">
     <feFlood flood-color="#ccff90" result="bg"/>
     <feMerge>
      <feMergeNode in="bg"/>
      <feMergeNode in="SourceGraphic"/>
     </feMerge>
    </filter>
   </defs>
   <text filter="url(#solid)" font-family="Microsoft YaHei" font-size="10.00" text-anchor="middle" x="311.5" y="-571.0">
    简单删除
   </text>
  </g>
  <g class="key">
   <defs>
    <filter height="1.2" id="solid" width="1.2" x="-0.1" y="-0.1">
     <feFlood flood-color="#ccff90" result="bg"/>
     <feMerge>
      <feMergeNode in="bg"/>
      <feMergeNode in="SourceGraphic"/>
     </feMerge>
    </filter>
   </defs>
   <text filter="url(#solid)" font-family="Microsoft YaHei" font-size="10.00" text-anchor="middle" x="288.5" y="-499.0">
    删除多个
   </text>
  </g>
  <g class="key">
   <defs>
    <filter height="1.2" id="solid" width="1.2" x="-0.1" y="-0.1">
     <feFlood flood-color="#ccff90" result="bg"/>
     <feMerge>
      <feMergeNode in="bg"/>
      <feMergeNode in="SourceGraphic"/>
     </feMerge>
    </filter>
   </defs>
   <text filter="url(#solid)" font-family="Microsoft YaHei" font-size="10.00" text-anchor="middle" x="265.5" y="-283.0">
    区间和
   </text>
  </g>
  <g class="key">
   <defs>
    <filter height="1.2" id="solid" width="1.2" x="-0.1" y="-0.1">
     <feFlood flood-color="#ccff90" result="bg"/>
     <feMerge>
      <feMergeNode in="bg"/>
      <feMergeNode in="SourceGraphic"/>
     </feMerge>
    </filter>
   </defs>
   <text filter="url(#solid)" font-family="Microsoft YaHei" font-size="10.00" text-anchor="middle" x="447.5" y="5.0">
    堆
   </text>
  </g>
  <g class="key">
   <defs>
    <filter height="1.2" id="solid" width="1.2" x="-0.1" y="-0.1">
     <feFlood flood-color="#ccff90" result="bg"/>
     <feMerge>
      <feMergeNode in="bg"/>
      <feMergeNode in="SourceGraphic"/>
     </feMerge>
    </filter>
   </defs>
   <text filter="url(#solid)" font-family="Microsoft YaHei" font-size="10.00" text-anchor="middle" x="599.5" y="-139.0">
    路程相等
   </text>
  </g>
  <g class="key">
   <defs>
    <filter height="1.2" id="solid" width="1.2" x="-0.1" y="-0.1">
     <feFlood flood-color="#ccff90" result="bg"/>
     <feMerge>
      <feMergeNode in="bg"/>
      <feMergeNode in="SourceGraphic"/>
     </feMerge>
    </filter>
   </defs>
   <text filter="url(#solid)" font-family="Microsoft YaHei" font-size="10.00" text-anchor="middle" x="599.5" y="-67.0">
    公式推理
   </text>
  </g>
  <g class="key">
   <defs>
    <filter height="1.2" id="solid" width="1.2" x="-0.1" y="-0.1">
     <feFlood flood-color="#ccff90" result="bg"/>
     <feMerge>
      <feMergeNode in="bg"/>
      <feMergeNode in="SourceGraphic"/>
     </feMerge>
    </filter>
   </defs>
   <text filter="url(#solid)" font-family="Microsoft YaHei" font-size="10.00" text-anchor="middle" x="747.5" y="-571.0">
    位运算
   </text>
  </g>
  <g class="key">
   <defs>
    <filter height="1.2" id="solid" width="1.2" x="-0.1" y="-0.1">
     <feFlood flood-color="#ccff90" result="bg"/>
     <feMerge>
      <feMergeNode in="bg"/>
      <feMergeNode in="SourceGraphic"/>
     </feMerge>
    </filter>
   </defs>
   <text filter="url(#solid)" font-family="Microsoft YaHei" font-size="10.00" text-anchor="middle" x="761.5" y="-499.0">
    set
   </text>
  </g>
  <g class="key">
   <defs>
    <filter height="1.2" id="solid" width="1.2" x="-0.1" y="-0.1">
     <feFlood flood-color="#ccff90" result="bg"/>
     <feMerge>
      <feMergeNode in="bg"/>
      <feMergeNode in="SourceGraphic"/>
     </feMerge>
    </filter>
   </defs>
   <text filter="url(#solid)" font-family="Microsoft YaHei" font-size="10.00" text-anchor="middle" x="774.5" y="-427.0">
    二叉树搜索
   </text>
  </g>
  <g class="key">
   <defs>
    <filter height="1.2" id="solid" width="1.2" x="-0.1" y="-0.1">
     <feFlood flood-color="#ccff90" result="bg"/>
     <feMerge>
      <feMergeNode in="bg"/>
      <feMergeNode in="SourceGraphic"/>
     </feMerge>
    </filter>
   </defs>
   <text filter="url(#solid)" font-family="Microsoft YaHei" font-size="10.00" text-anchor="middle" x="781.5" y="-355.0">
    单调栈
   </text>
  </g>
  <g class="key">
   <defs>
    <filter height="1.2" id="solid" width="1.2" x="-0.1" y="-0.1">
     <feFlood flood-color="#ccff90" result="bg"/>
     <feMerge>
      <feMergeNode in="bg"/>
      <feMergeNode in="SourceGraphic"/>
     </feMerge>
    </filter>
   </defs>
   <text filter="url(#solid)" font-family="Microsoft YaHei" font-size="10.00" text-anchor="middle" x="781.5" y="-283.0">
    插入排序
   </text>
  </g>
  <g class="key">
   <defs>
    <filter height="1.2" id="solid" width="1.2" x="-0.1" y="-0.1">
     <feFlood flood-color="#ccff90" result="bg"/>
     <feMerge>
      <feMergeNode in="bg"/>
      <feMergeNode in="SourceGraphic"/>
     </feMerge>
    </filter>
   </defs>
   <text filter="url(#solid)" font-family="Microsoft YaHei" font-size="10.00" text-anchor="middle" x="781.5" y="-211.0">
    归并排序
   </text>
  </g>
  <g class="key">
   <defs>
    <filter height="1.2" id="solid" width="1.2" x="-0.1" y="-0.1">
     <feFlood flood-color="#ccff90" result="bg"/>
     <feMerge>
      <feMergeNode in="bg"/>
      <feMergeNode in="SourceGraphic"/>
     </feMerge>
    </filter>
   </defs>
   <text filter="url(#solid)" font-family="Microsoft YaHei" font-size="10.00" text-anchor="middle" x="781.5" y="-139.0">
    map映射
   </text>
  </g>
 </g>
</svg>